<svg xmlns="http://www.w3.org/2000/svg" fill="none" viewBox="0 0 39 39.08045977011494" style="max-height: 500px" width="39" height="39.08045977011494">
<g clip-path="url(#clip0_2622_1824)">
<rect fill="white" rx="16.8362" height="33.6724" width="33.6724"/>
<path fill="#C8E8F5" d="M11.4269 27.9065C10.0479 28.3462 8.36205 28.4536 7.01268 27.811C6.57335 27.6014 6.27698 27.332 6.21422 26.8565C6.16192 26.4645 6.25083 26.0128 6.65878 25.8389C7.80243 25.3565 9.19364 25.5134 10.414 25.5134"/>
<path fill="#A6BCD0" d="M7.12604 27.0564C6.69368 26.8501 6.40079 26.5842 6.33106 26.1206C6.20379 26.332 6.17938 26.6064 6.21251 26.8552C6.27701 27.3325 6.57164 27.6018 7.01097 27.8098C8.36034 28.4524 10.0444 28.345 11.4252 27.9052L11.1532 27.2626C9.85441 27.6035 8.35162 27.6393 7.12604 27.0564Z"/>
<path fill="#151515" d="M11.4267 27.9068L11.3082 27.9358C11.2315 27.9563 11.1164 27.9801 10.9717 28.0108C10.827 28.0415 10.6509 28.0739 10.447 28.1012C10.243 28.1301 10.0129 28.1506 9.76182 28.1676C9.51077 28.1796 9.23707 28.1813 8.95115 28.1642C8.66524 28.1455 8.36538 28.1046 8.06203 28.0398C7.75694 27.9767 7.4536 27.8711 7.16071 27.7398C6.86434 27.612 6.59063 27.4398 6.4529 27.179C6.38317 27.0495 6.34656 26.908 6.33435 26.7512C6.32215 26.6046 6.33435 26.4495 6.38143 26.3148C6.4285 26.1819 6.50695 26.066 6.62027 25.9944C6.64467 25.9757 6.68303 25.9603 6.70569 25.9467L6.81901 25.9024C6.89398 25.87 6.9672 25.8461 7.03868 25.824C7.32808 25.7319 7.62619 25.6705 7.91036 25.6331C8.19453 25.5956 8.46824 25.5751 8.72103 25.5649C9.2266 25.5444 9.65199 25.5393 9.9501 25.5342C10.2482 25.5274 10.4173 25.5154 10.4173 25.5154L9.95185 25.4848C9.65547 25.4677 9.23184 25.4268 8.71928 25.4183C8.46301 25.4132 8.18407 25.4183 7.88944 25.4439C7.59481 25.4711 7.28449 25.5171 6.9672 25.6109C6.887 25.6348 6.80681 25.6586 6.73359 25.6876L6.62027 25.7302C6.57145 25.7541 6.53136 25.7694 6.49126 25.7967C6.32389 25.8955 6.20534 26.0626 6.14607 26.2364C6.08505 26.4137 6.06936 26.5927 6.08331 26.7751C6.09551 26.9472 6.13735 27.1347 6.22801 27.3C6.41281 27.6375 6.75451 27.8336 7.06308 27.9648C7.37689 28.1029 7.7029 28.2 8.02194 28.2597C8.66175 28.3824 9.27193 28.3705 9.78274 28.3125C10.039 28.2818 10.2709 28.2409 10.4731 28.1932C10.6771 28.1489 10.8514 28.0995 10.9944 28.0568C11.1373 28.0159 11.2472 27.975 11.3221 27.9478L11.4372 27.9068H11.4267Z"/>
<path fill="#C8E8F5" d="M10.7554 8.82999C11.0221 9.26975 11.0239 9.84928 10.9297 10.3385C10.8356 10.8277 10.0964 10.935 9.68844 10.8635C9.34674 10.8038 9.31362 10.4612 9.15497 10.226C8.94925 9.92257 8.65114 9.6294 8.71913 9.23907C8.79061 8.81976 9.32234 8.53 9.71459 8.42603C10.14 8.31353 10.5287 8.455 10.7571 8.82999H10.7554Z"/>
<path fill="#A6BCD0" d="M9.05925 9.38921C9.03659 9.38239 9.01915 9.37046 9.01567 9.3483C9.01392 9.32955 9.02439 9.3108 9.03485 9.29546C9.08192 9.23069 9.14468 9.17785 9.20918 9.12842C9.42013 8.97161 9.67292 8.8557 9.93791 8.85059C10.0094 8.85059 10.0896 8.85911 10.1367 8.91195C10.1471 8.92388 10.1558 8.93922 10.1558 8.95456C10.1558 8.97161 10.1454 8.98695 10.1349 9.00229C10.0059 9.19489 9.97452 9.40966 9.96581 9.63465C9.96232 9.74374 9.97801 9.85283 10.0146 9.9551C10.0321 10.0045 10.0547 10.0523 10.0809 10.0983C10.0913 10.117 10.1733 10.2091 10.1698 10.2227C10.1558 10.279 10.1367 10.3318 10.107 10.3778C9.94314 10.2449 9.75834 9.85113 9.65723 9.74374C9.54914 9.62954 9.43408 9.54602 9.28938 9.47955C9.23533 9.45398 9.17954 9.42671 9.12376 9.40796C9.10458 9.40114 9.07669 9.39943 9.05402 9.39091L9.05925 9.38921Z"/>
<path fill="#151515" d="M9.91349 10.9678C10.3511 10.9678 10.9299 10.8008 11.0153 10.3559C11.085 9.99795 11.153 9.31615 10.8305 8.78776C10.5864 8.3872 10.161 8.22187 9.69034 8.34629C9.33818 8.44004 8.71754 8.72981 8.63212 9.22752C8.5711 9.57864 8.77856 9.85989 8.96161 10.107C9.00345 10.1633 9.04355 10.2195 9.0819 10.2758C9.12374 10.3371 9.15687 10.407 9.18999 10.482C9.28065 10.678 9.38351 10.8979 9.67291 10.9491C9.74438 10.961 9.82632 10.9678 9.91349 10.9678ZM10.6806 8.87469C10.9735 9.35536 10.909 9.98943 10.8444 10.3252C10.7643 10.7428 10.0599 10.8451 9.70429 10.782C9.50554 10.7462 9.43232 10.5911 9.34864 10.4121C9.31203 10.3354 9.27542 10.2553 9.2266 10.182C9.18651 10.1241 9.14467 10.0661 9.10282 10.0082C8.925 9.76614 8.75589 9.53774 8.80471 9.25649C8.86573 8.89685 9.33121 8.61901 9.73741 8.51163C10.1332 8.40766 10.4783 8.5389 10.6823 8.87639L10.6806 8.87469Z"/>
<path fill="#151515" d="M10.1822 8.91724C10.1822 8.91724 10.1595 8.93428 10.1247 8.96837C10.0898 9.00246 10.0427 9.0553 9.99914 9.12689C9.95381 9.19848 9.91197 9.29052 9.88582 9.39279C9.85792 9.49506 9.85095 9.61437 9.85792 9.72346C9.86664 9.83766 9.8893 9.94846 9.93114 10.049C9.9695 10.1496 10.0253 10.2348 10.0793 10.2996C10.1334 10.3644 10.1892 10.4104 10.2293 10.4393C10.2694 10.4666 10.2938 10.4803 10.2938 10.4803L10.2537 10.4155C10.2293 10.3746 10.1961 10.3166 10.163 10.2467C10.0968 10.107 10.0427 9.91266 10.0305 9.71323C10.0201 9.60926 10.0253 9.51381 10.0357 9.42006C10.048 9.32631 10.0671 9.23939 10.0898 9.16609C10.1351 9.0178 10.1822 8.91724 10.1822 8.91724Z"/>
<path fill="#151515" d="M9.00715 9.38399C9.00715 9.38399 9.11175 9.41467 9.24425 9.48285C9.31049 9.51694 9.38372 9.56126 9.45519 9.61751C9.4918 9.64478 9.52493 9.67546 9.56154 9.70614C9.59466 9.73682 9.63302 9.77432 9.66266 9.81012C9.79515 9.94988 9.89975 10.1135 9.96426 10.2465C9.99564 10.3129 10.02 10.3726 10.0375 10.4135L10.0636 10.48C10.0636 10.48 10.0689 10.4544 10.0706 10.4084C10.0723 10.3624 10.0723 10.2959 10.0584 10.2175C10.0445 10.1391 10.0166 10.047 9.97123 9.9567C9.9259 9.86466 9.8614 9.77603 9.78992 9.69592C9.74982 9.65501 9.71496 9.62092 9.67137 9.58512C9.62953 9.54933 9.5842 9.52206 9.53888 9.49479C9.44822 9.44195 9.35582 9.40956 9.27563 9.39252C9.19543 9.37547 9.1257 9.37377 9.07863 9.37717C9.03156 9.38058 9.00541 9.3857 9.00541 9.3857L9.00715 9.38399Z"/>
<path fill="#C8E8F5" d="M29.3731 34.2662C29.8351 33.4924 30.0879 32.618 30.2971 31.7453C30.8201 29.5755 30.0757 27.2982 29.7497 25.1591C29.6381 24.4245 29.5875 23.6813 29.4986 22.9433C29.3609 21.8217 29.1395 20.7104 28.8013 19.6297C28.2016 17.7139 27.363 15.6736 26.1688 14.0322C25.6894 13.3742 25.1332 12.7197 24.5823 12.1248C24.0401 11.5385 23.4526 10.9879 22.8076 10.5107C21.6814 9.67719 20.1158 9.06698 18.7176 8.87608C16.3658 8.55563 13.7264 8.7312 11.5245 9.64992C8.63048 10.8567 7.27065 13.9896 7.43104 16.9315C7.53042 18.7638 7.6786 20.3712 8.52588 22.0586C9.31911 23.637 10.5499 25.1352 10.522 26.8943C10.4959 28.5903 10.4349 30.334 10.9143 31.9822C11.3658 33.5282 11.9411 34.6923 13.1231 35.8361C14.6747 37.336 16.5506 38.0741 18.7263 38.2462C19.6835 38.3212 20.6301 38.3212 21.5733 38.2053C22.8076 38.0536 24.0035 38.0775 25.2099 37.6991C27.0405 37.1264 28.416 35.8701 29.3714 34.2662H29.3731Z"/>
<path fill="#A6BCD0" d="M8.47004 12.2218C8.37589 12.3615 8.33231 12.4962 8.36718 12.6206C8.50839 13.1473 9.89611 13.3075 10.3389 13.4286C12.3926 13.9859 14.6102 14.1376 16.7075 14.1376C18.878 14.1376 21.1217 13.9842 23.2155 13.3893C23.6687 13.2598 24.2336 13.1814 24.6119 12.8848C25.454 12.2218 23.5014 11.1309 23.0603 10.8701C21.7754 10.1116 20.2517 10.0332 18.7873 9.95479C17.0213 9.85934 15.2465 9.90877 13.4927 10.1269C12.5303 10.248 11.5645 10.4218 10.6649 10.7798C10.257 10.9417 8.87799 11.6201 8.47004 12.2218Z"/>
<path fill="#A6BCD0" d="M12.0769 34.4709C13.6285 35.9709 15.5043 36.7089 17.6801 36.8811C18.6372 36.9561 19.5838 36.9561 20.527 36.8402C21.7613 36.6885 22.9572 36.7123 24.1637 36.3339C25.9942 35.7612 27.3697 34.505 28.3251 32.9011C28.7871 32.1272 29.0399 31.2528 29.2491 30.3801C29.7721 28.2103 29.0277 25.9331 28.7017 23.794C28.6476 23.4429 28.7226 22.2292 28.3948 22.0383C28.0793 21.856 27.5876 22.1065 27.2791 22.202C26.634 22.4031 26.383 22.8787 26.4021 23.5247C26.4196 24.1741 26.7752 24.7894 27.2791 25.2138C27.8021 25.6553 28.5256 26.0524 29.1758 25.6229C29.1898 25.6127 29.209 25.6041 29.2229 25.611C29.2369 25.6178 29.2404 25.6331 29.2421 25.6485L29.277 25.8377C29.2839 25.8786 29.2927 25.9229 29.2752 25.9621C29.2595 25.9962 29.2264 26.02 29.1933 26.0405C28.7051 26.3524 28.0775 26.2825 27.5545 26.0882C26.4928 25.6911 25.4956 24.9224 25.1992 23.8485C25.1016 23.4974 25.0859 23.1105 25.2341 22.7764C25.3718 22.4679 25.6333 22.2327 25.8948 22.0162C26.2156 21.752 26.5468 21.5014 26.8903 21.2645C27.0472 21.1571 27.2093 21.0497 27.3924 20.9969C27.5929 20.9389 27.8108 20.9458 28.0043 20.8725C28.475 20.6935 28.2397 20.2162 28.1647 19.8617C28.0514 19.3231 27.9154 18.7896 27.7498 18.2646C27.1849 16.4595 26.4039 14.5505 25.3178 12.9619C25.6141 13.3113 25.9001 13.6693 26.1633 14.0306C27.3575 15.6721 28.1961 17.7106 28.7958 19.6282C29.134 20.7088 29.3554 21.8202 29.4931 22.9417C29.5838 23.6798 29.6326 24.4229 29.7442 25.1576C30.0702 27.2967 30.8146 29.5722 30.2916 31.7437C30.0824 32.6164 29.8279 33.4908 29.3676 34.2647C28.4123 35.8686 27.035 37.1248 25.2062 37.6975C23.9998 38.0742 22.8038 38.0521 21.5695 38.2038C20.6264 38.3197 19.6797 38.3197 18.7226 38.2447C16.5469 38.0725 14.6693 37.3345 13.1194 35.8345C12.5859 35.3198 12.178 34.7999 11.8467 34.2442C11.92 34.3192 11.9949 34.3959 12.0734 34.4709H12.0769Z"/>
<path fill="#151515" d="M20.0005 38.4254C20.5514 38.4254 21.0779 38.3947 21.5887 38.3316C21.9566 38.2856 22.3279 38.2566 22.6871 38.2277C23.5256 38.1595 24.3921 38.0896 25.2498 37.822C26.9845 37.28 28.4489 36.0732 29.4845 34.3312C29.9604 33.5318 30.2167 32.6301 30.4224 31.7744C30.8269 30.0955 30.4869 28.3638 30.1574 26.6882C30.0563 26.1769 29.9534 25.6485 29.8767 25.1406C29.8087 24.6991 29.7634 24.2457 29.7198 23.8059C29.6902 23.5128 29.6605 23.2196 29.6257 22.9281C29.4775 21.7179 29.2491 20.6271 28.9248 19.5924C28.1978 17.2743 27.307 15.3789 26.2732 13.9591C25.8373 13.3591 25.2986 12.7131 24.6762 12.0398C24.0748 11.3904 23.4873 10.8569 22.8823 10.4086C21.7648 9.58194 20.1731 8.94616 18.7313 8.74844C16.1145 8.3905 13.5344 8.67004 11.4702 9.5308C8.37921 10.8194 7.14839 14.179 7.29832 16.9368C7.39769 18.7589 7.54936 20.4072 8.40536 22.1134C8.61107 22.5208 8.84817 22.9298 9.07655 23.3236C9.73206 24.4502 10.4085 25.6161 10.3893 26.8894L10.3841 27.1945C10.3579 28.7933 10.33 30.4466 10.7868 32.0148C11.2104 33.4704 11.7544 34.6908 13.0305 35.9249C14.5455 37.3891 16.4039 38.1885 18.7157 38.3708C19.1602 38.4066 19.5873 38.4237 20.0023 38.4237L20.0005 38.4254ZM29.2578 34.2016C28.2536 35.8874 26.8398 37.055 25.1679 37.5765C24.338 37.8356 23.5239 37.9021 22.6626 37.972C22.3018 38.001 21.9269 38.0316 21.5539 38.0777C20.6769 38.185 19.7547 38.1987 18.7331 38.1169C16.4859 37.9396 14.6797 37.1624 13.2101 35.7442C11.9758 34.5511 11.4475 33.363 11.0344 31.9466C10.5881 30.416 10.616 28.7814 10.6421 27.2013L10.6473 26.8962C10.6683 25.553 9.97265 24.3565 9.30145 23.1991C9.07481 22.8071 8.83946 22.4031 8.63722 22.0026C7.80215 20.3407 7.65396 18.7197 7.55634 16.9249C7.41164 14.2557 8.59713 11.0086 11.5713 9.76773C13.5936 8.92401 16.1233 8.65299 18.6947 9.00412C20.0947 9.19502 21.6393 9.81205 22.7237 10.6149C23.3164 11.0529 23.89 11.5745 24.481 12.2137C25.0964 12.8801 25.6264 13.5176 26.0587 14.1091C27.0751 15.5068 27.9555 17.3766 28.6738 19.6691C28.9928 20.6901 29.2195 21.7657 29.3659 22.9605C29.4008 23.2503 29.4304 23.5417 29.46 23.8332C29.5036 24.2747 29.5507 24.7315 29.6187 25.1798C29.6971 25.6928 29.8017 26.2246 29.9011 26.7377C30.2254 28.3859 30.5584 30.0921 30.1679 31.7165C29.9674 32.5517 29.7163 33.4312 29.2578 34.2016Z"/>
<path fill="#A6BCD0" d="M12.3175 19.9742C12.3244 19.923 12.3366 19.8753 12.3541 19.8276C12.3715 19.7816 12.3942 19.7373 12.4203 19.6946C12.4343 19.6742 12.4482 19.6537 12.4639 19.635L12.49 19.6043L12.5145 19.5787C12.6557 19.439 12.8352 19.3691 12.9974 19.3145C13.0566 19.2941 13.1177 19.2788 13.1787 19.2634C13.1787 19.2583 13.1787 19.2549 13.1787 19.2498C13.1787 19.1952 13.1979 19.1356 13.2275 19.0861C13.2606 19.0367 13.3059 18.9975 13.3582 18.9771C13.4071 18.9549 13.4594 18.9464 13.5117 18.943C13.5605 18.9413 13.6058 18.9464 13.6511 18.9498L13.7854 18.9617C13.8464 18.9668 13.9074 18.9702 13.9702 18.9719C14.0312 18.9685 14.0922 18.9668 14.155 18.9617L14.2892 18.9498C14.3345 18.9464 14.3799 18.9413 14.4287 18.943C14.481 18.9464 14.5315 18.9549 14.5821 18.9771C14.6326 18.9975 14.678 19.0367 14.7128 19.0861C14.739 19.1305 14.7547 19.1816 14.7582 19.2327C14.8645 19.2549 14.9709 19.2805 15.0737 19.3145C15.2359 19.3708 15.4154 19.439 15.5566 19.5787L15.581 19.6043L15.6072 19.635C15.6229 19.6537 15.6368 19.6742 15.6508 19.6946C15.6769 19.7356 15.6996 19.7799 15.717 19.8276C15.7345 19.8736 15.7467 19.923 15.7536 19.9742C15.7589 20.0202 15.7606 20.073 15.7519 20.1174C15.7606 20.2043 15.7589 20.2946 15.7362 20.3833C15.724 20.431 15.7048 20.4787 15.6804 20.5247C15.6682 20.5469 15.6525 20.5691 15.6368 20.5895C15.6264 20.6014 15.6229 20.6066 15.6089 20.6236L15.5863 20.6458C15.5741 20.6594 15.5497 20.6798 15.5287 20.6969C15.5078 20.7139 15.4852 20.7259 15.4625 20.7395C15.4172 20.7634 15.3683 20.7838 15.3195 20.7958C15.2202 20.8213 15.1243 20.8196 15.0354 20.8128C14.9691 20.8077 14.9064 20.7992 14.8453 20.7889C14.8558 20.8639 14.8663 20.9526 14.875 21.0531C14.8837 21.1315 14.8785 21.2304 14.8419 21.3241C14.807 21.4179 14.7477 21.5099 14.6605 21.5815C14.5734 21.6531 14.4688 21.7111 14.3432 21.7281C14.3084 21.7349 14.284 21.7349 14.2596 21.7366H14.1776L14.0242 21.74H13.8708C13.822 21.74 13.7522 21.7332 13.6947 21.7196C13.5762 21.6923 13.4716 21.631 13.3914 21.5525C13.3094 21.4758 13.2554 21.3787 13.2275 21.2832C13.2135 21.2355 13.2048 21.1878 13.2031 21.1384V21.077L13.2101 21.0156C13.217 20.9304 13.2257 20.8554 13.2345 20.7872C13.1734 20.7958 13.1124 20.8043 13.0479 20.8094C12.959 20.8145 12.8614 20.8162 12.7638 20.7923C12.7149 20.7804 12.6661 20.76 12.6208 20.7361C12.5981 20.7225 12.5772 20.7105 12.5546 20.6935C12.5336 20.6764 12.5092 20.656 12.497 20.6423L12.4744 20.6202C12.4587 20.6048 12.4552 20.598 12.4465 20.5861C12.4308 20.5656 12.4168 20.5435 12.4029 20.5213C12.3767 20.477 12.3593 20.4293 12.3471 20.3799C12.3244 20.2912 12.3209 20.2009 12.3314 20.114C12.3227 20.0713 12.3244 20.0168 12.3297 19.9708L12.3175 19.9742Z"/>
<path fill="white" d="M13.7334 19.7852H13.981C14.3363 19.7852 14.6243 20.0667 14.6243 20.4141V20.6562C14.6243 21.0035 14.3363 21.2851 13.981 21.2851H13.7334C13.3781 21.2851 13.0901 21.0035 13.0901 20.6562V20.4141C13.0901 20.0667 13.3781 19.7852 13.7334 19.7852Z"/>
<path fill="#D6DDDC" d="M13.0935 20.6915C13.0935 20.6795 13.09 20.6693 13.09 20.6574V20.4136C13.09 20.0676 13.3794 19.7847 13.7333 19.7847H13.9826C14.3365 19.7847 14.6259 20.0676 14.6259 20.4136V20.6574C14.6259 20.6812 14.6207 20.7051 14.6189 20.729C14.211 20.5432 13.5258 20.4801 13.0952 20.6915H13.0935Z"/>
<path fill="#151515" d="M13.1145 20.177L13.0988 20.2111C13.0901 20.2333 13.0762 20.2673 13.0675 20.3117C13.0535 20.402 13.0378 20.5247 13.0239 20.6764L13.0187 20.7378V20.7991C13.0187 20.8486 13.0274 20.8963 13.0413 20.944C13.0692 21.0395 13.1233 21.1366 13.2052 21.2133C13.2854 21.2917 13.39 21.3531 13.5085 21.3804C13.5643 21.394 13.6341 21.3991 13.6846 21.3991H14.0751C14.1013 21.3957 14.1239 21.3957 14.1588 21.3889C14.2843 21.3719 14.3889 21.3139 14.4761 21.2423C14.5633 21.1707 14.6226 21.077 14.6574 20.9849C14.694 20.8929 14.6975 20.794 14.6905 20.7139C14.6766 20.5639 14.6609 20.4378 14.647 20.3509C14.6382 20.3031 14.626 20.2725 14.6191 20.2486L14.6086 20.2128L14.6016 20.3492C14.5894 20.4378 14.572 20.5622 14.558 20.7122C14.5511 20.7838 14.5336 20.8503 14.5005 20.9168C14.4657 20.9815 14.4133 21.0395 14.3488 21.0872C14.2861 21.1332 14.2041 21.1622 14.1309 21.1724C14.117 21.1758 14.0891 21.1758 14.0629 21.1775H13.6846C13.6323 21.1775 13.5992 21.1758 13.5574 21.1673C13.4789 21.1503 13.4022 21.1179 13.3412 21.0667C13.2802 21.0173 13.2331 20.9543 13.2017 20.8878C13.186 20.8537 13.1773 20.8196 13.1686 20.7889C13.1651 20.7702 13.1634 20.7497 13.1599 20.731L13.1546 20.6764C13.1407 20.5264 13.1233 20.3986 13.1128 20.3134C13.1041 20.2281 13.1128 20.177 13.1128 20.177H13.1145Z"/>
<path fill="#D8B59B" d="M12.2551 19.7421C12.2412 19.5819 12.3126 19.4233 12.4172 19.3159C12.5218 19.2086 12.6543 19.1438 12.7868 19.091C12.9647 19.0211 13.1477 18.9682 13.3342 18.9341C13.5208 18.9001 13.6882 18.8983 13.8573 18.9103C14.0264 18.8983 14.1937 18.9018 14.3803 18.9341C14.5668 18.9682 14.7499 19.0194 14.9277 19.091C15.0602 19.1438 15.1927 19.2086 15.2973 19.3159C15.4019 19.4233 15.4734 19.5819 15.4594 19.7421C15.4594 19.7523 15.4559 19.7608 15.4542 19.7693C15.4751 19.9262 15.4472 20.0864 15.3478 20.2023C15.1474 20.4324 14.8684 20.3744 14.6174 20.3506C14.3628 20.3267 14.1118 20.2619 13.8573 20.2313C13.6027 20.2619 13.3517 20.3267 13.0972 20.3506C12.8461 20.3744 12.5672 20.4324 12.3667 20.2023C12.2656 20.0864 12.2377 19.9262 12.2603 19.7693C12.2603 19.7608 12.2568 19.7506 12.2551 19.7421Z"/>
<path fill="#A78F76" d="M14.5124 20.0816C14.5926 20.0884 14.6536 20.0679 14.7024 20.0339C14.7687 20.0083 14.8314 19.9674 14.8872 19.9026C14.9883 19.7867 15.0162 19.6265 14.9936 19.4697C14.9936 19.4611 14.9971 19.4509 14.9988 19.4424C15.011 19.3094 14.9604 19.1799 14.8855 19.0776C14.8994 19.0828 14.9134 19.0862 14.9291 19.093C15.0616 19.1458 15.1941 19.2106 15.2987 19.318C15.4033 19.4254 15.4747 19.5839 15.4608 19.7441C15.4608 19.7543 15.4573 19.7628 15.4556 19.7714C15.4765 19.9282 15.4486 20.0884 15.3492 20.2043C15.1487 20.4344 14.8698 20.3765 14.6187 20.3526C14.3642 20.3287 14.1132 20.264 13.8586 20.2333C13.6041 20.264 13.3531 20.3287 13.0985 20.3526C12.8579 20.3748 12.5929 20.4259 12.3942 20.2282C13.0916 20.0714 13.7924 20.0236 14.5141 20.0833L14.5124 20.0816Z"/>
<path fill="#151515" d="M12.255 19.7422C12.2428 19.5769 12.3195 19.415 12.4381 19.3025C12.5584 19.1883 12.7187 19.1286 12.8756 19.0741C13.0343 19.0212 13.1982 18.9871 13.3621 18.965C13.5259 18.9445 13.6898 18.9462 13.8537 18.965H13.8624C14.0298 18.9599 14.1936 18.9718 14.354 19.0059C14.5162 19.04 14.6731 19.0911 14.8247 19.1525C14.9782 19.2121 15.1211 19.282 15.217 19.386L15.2362 19.4064L15.2501 19.4252C15.2606 19.4388 15.271 19.4525 15.2798 19.4678C15.2972 19.4968 15.3129 19.5275 15.3251 19.5598C15.3373 19.5922 15.3443 19.6246 15.3477 19.657C15.3495 19.6911 15.353 19.7184 15.3425 19.7559V19.7848C15.353 19.8547 15.3512 19.9246 15.3355 19.9894C15.3286 20.0218 15.3164 20.0507 15.3024 20.078C15.2954 20.0916 15.2867 20.1053 15.278 20.1172L15.2658 20.1309L15.2449 20.153C15.2292 20.1718 15.2205 20.1752 15.21 20.1854C15.1996 20.1939 15.1839 20.2041 15.1717 20.2127C15.1438 20.228 15.1159 20.2433 15.0828 20.2519C15.0183 20.2723 14.9433 20.2757 14.8666 20.274L14.619 20.2604C14.5371 20.2553 14.4569 20.2468 14.3732 20.2365C14.2076 20.2161 14.0402 20.1871 13.8676 20.1735H13.8537C13.6828 20.2007 13.519 20.2416 13.3568 20.2774C13.2749 20.2945 13.1929 20.3098 13.111 20.3218C13.0273 20.332 12.9436 20.3473 12.8617 20.3541C12.7798 20.3593 12.6943 20.361 12.6141 20.3405C12.5339 20.3218 12.459 20.2808 12.3997 20.2229C12.2759 20.107 12.2428 19.928 12.2655 19.7678L12.2602 19.7405L12.255 19.7422ZM12.255 19.7422L12.2602 19.7695C12.2358 19.9297 12.2655 20.1121 12.3892 20.2314C12.4468 20.2928 12.5217 20.3388 12.6037 20.3627C12.6856 20.3882 12.7728 20.3916 12.8582 20.3899C13.0273 20.3814 13.1964 20.3746 13.3655 20.3507C13.5329 20.3286 13.7003 20.3013 13.8641 20.2894H13.8502C14.0123 20.3149 14.1745 20.3576 14.3418 20.3916C14.4238 20.4087 14.5109 20.4257 14.5964 20.4377C14.68 20.4496 14.762 20.4632 14.8526 20.47C14.9415 20.4752 15.0392 20.4769 15.1368 20.453C15.1856 20.4411 15.2344 20.4206 15.2798 20.3968C15.3024 20.3831 15.3233 20.3712 15.346 20.3541C15.3669 20.3371 15.3913 20.3166 15.4035 20.303L15.4262 20.2808C15.4419 20.2655 15.4454 20.2587 15.4541 20.2468C15.4698 20.2263 15.4837 20.2041 15.4977 20.182C15.5238 20.1377 15.5413 20.0899 15.5535 20.0405C15.5779 19.9451 15.5814 19.8462 15.5692 19.7542V19.7831C15.5796 19.7388 15.5779 19.6809 15.5726 19.6331C15.5657 19.582 15.5535 19.5343 15.536 19.4866C15.5186 19.4405 15.4959 19.3962 15.4698 19.3536C15.4558 19.3331 15.4419 19.3127 15.4262 19.2939L15.4 19.2633L15.3756 19.2377C15.2344 19.0979 15.0549 19.028 14.8927 18.9735C14.7254 18.9173 14.5545 18.8798 14.3802 18.8576C14.2041 18.8337 14.0263 18.8354 13.8537 18.8576H13.8624C13.6915 18.8508 13.5172 18.8627 13.3498 18.8985C13.1825 18.9326 13.0221 18.9854 12.8652 19.0468C12.71 19.1082 12.5514 19.1797 12.4328 19.2974C12.3143 19.4133 12.2411 19.5786 12.2568 19.7439L12.255 19.7422Z"/>
<path fill="#151515" d="M15.4591 19.7422C15.4748 19.5768 15.4016 19.4115 15.283 19.2956C15.1627 19.178 15.0058 19.1047 14.8507 19.045C14.6938 18.9837 14.5316 18.9325 14.366 18.8967C14.1987 18.8609 14.0261 18.849 13.8535 18.8558H13.8622C13.6896 18.8354 13.5118 18.8337 13.3357 18.8558C13.1613 18.8797 12.9905 18.9172 12.8231 18.9717C12.661 19.028 12.4814 19.0962 12.3402 19.2359L12.3158 19.2615L12.2897 19.2922C12.274 19.3109 12.26 19.3314 12.2461 19.3518C12.2199 19.3927 12.1973 19.4371 12.1798 19.4848C12.1624 19.5308 12.1502 19.5802 12.1432 19.6314C12.138 19.6808 12.1362 19.7371 12.1467 19.7814V19.7524C12.1345 19.8461 12.138 19.9433 12.1624 20.0387C12.1746 20.0865 12.1938 20.1342 12.2182 20.1802C12.2304 20.2024 12.2461 20.2245 12.2618 20.245C12.2722 20.2569 12.2757 20.262 12.2897 20.2791L12.3123 20.3012C12.3245 20.3149 12.3489 20.3353 12.3699 20.3524C12.3908 20.3694 12.4134 20.3813 12.4361 20.395C12.4814 20.4188 12.5302 20.4393 12.5791 20.4512C12.6784 20.4768 12.7743 20.4751 12.8632 20.4683C12.9539 20.4615 13.0358 20.4478 13.1195 20.4359C13.2049 20.424 13.2921 20.4069 13.374 20.3899C13.5414 20.3541 13.7035 20.3132 13.8657 20.2876H13.8517C14.0156 20.2995 14.183 20.3285 14.3503 20.349C14.5194 20.3728 14.6885 20.3796 14.8577 20.3882C14.9431 20.3882 15.0302 20.3882 15.1122 20.3609C15.1941 20.337 15.2691 20.291 15.3266 20.2296C15.4504 20.1103 15.48 19.928 15.4556 19.7677L15.4609 19.7405L15.4591 19.7422ZM15.4591 19.7422L15.4539 19.7694C15.4748 19.9314 15.4417 20.1103 15.3196 20.2245C15.2621 20.2842 15.1854 20.3234 15.1052 20.3421C15.025 20.3626 14.9413 20.3609 14.8577 20.3558C14.774 20.349 14.692 20.3336 14.6083 20.3234C14.5264 20.3115 14.4445 20.2961 14.3625 20.2791C14.1987 20.245 14.0348 20.2024 13.8657 20.1751H13.8517C13.6791 20.1887 13.5118 20.216 13.3461 20.2382C13.2625 20.2484 13.1823 20.2569 13.1003 20.262L12.8528 20.2757C12.7743 20.2757 12.6994 20.2723 12.6366 20.2535C12.6035 20.245 12.5756 20.2297 12.5477 20.2143C12.5355 20.2058 12.5198 20.1956 12.5093 20.187C12.4989 20.1768 12.4901 20.1734 12.4745 20.1547L12.4535 20.1325L12.4413 20.1189C12.4326 20.1069 12.4239 20.0933 12.4169 20.0797C12.403 20.0524 12.3908 20.0217 12.3838 19.991C12.3681 19.928 12.3681 19.8564 12.3768 19.7865V19.7575C12.3681 19.72 12.3699 19.6927 12.3716 19.6586C12.3751 19.6263 12.3821 19.5939 12.3943 19.5615C12.4065 19.5291 12.4204 19.4984 12.4396 19.4694C12.4483 19.4541 12.4588 19.4405 12.4692 19.4268L12.4832 19.4081L12.5024 19.3876C12.5982 19.2837 12.7395 19.2138 12.8946 19.1541C13.0463 19.0928 13.2032 19.0416 13.3653 19.0075C13.5257 18.9717 13.6896 18.9598 13.857 18.9666H13.8657C14.0295 18.9479 14.1934 18.9445 14.3573 18.9666C14.5212 18.9888 14.6851 19.0229 14.8437 19.0757C15.0006 19.1285 15.161 19.1899 15.2813 19.3041C15.3998 19.4166 15.4765 19.5802 15.4643 19.7439L15.4591 19.7422Z"/>
<path fill="#474840" d="M13.4388 18.6448C13.451 18.6448 13.4649 18.6448 13.4789 18.6448C13.5713 18.6448 14.0106 18.6448 14.103 18.6448C14.1169 18.6448 14.1309 18.6448 14.1431 18.6448C14.6138 18.6328 14.5563 19.076 14.2773 19.2618C14.1518 19.3453 13.9809 19.3555 13.8223 19.3572C13.8118 19.3572 13.8014 19.3572 13.7909 19.3572C13.7805 19.3572 13.7717 19.3572 13.7595 19.3572C13.5991 19.3555 13.4283 19.3453 13.3045 19.2618C13.0256 19.076 12.968 18.6328 13.4388 18.6448Z"/>
<path fill="#30302B" d="M13.3044 18.9616C13.43 19.0452 13.6008 19.0554 13.7595 19.0571C13.7699 19.0571 13.7804 19.0571 13.7908 19.0571C13.8013 19.0571 13.81 19.0571 13.8222 19.0571C13.9809 19.0571 14.1535 19.0452 14.2772 18.9616C14.354 18.9105 14.4132 18.8389 14.4498 18.7622C14.5475 18.9037 14.4603 19.1389 14.2772 19.2616C14.1517 19.3451 13.9809 19.3554 13.8222 19.3571C13.8118 19.3571 13.8013 19.3571 13.7908 19.3571C13.7804 19.3571 13.7717 19.3571 13.7595 19.3571C13.5991 19.3571 13.4282 19.3451 13.3044 19.2616C13.1214 19.1389 13.0342 18.9037 13.1318 18.7622C13.1685 18.8389 13.2277 18.9105 13.3044 18.9616Z"/>
<path fill="#151515" d="M13.4391 18.6445C13.6186 18.6462 13.7965 18.6513 13.976 18.6667L14.1103 18.6786C14.1347 18.6786 14.1521 18.682 14.1748 18.6854C14.1957 18.6888 14.2218 18.6888 14.2393 18.6974C14.2759 18.7076 14.3125 18.7212 14.3404 18.7434C14.37 18.7621 14.3857 18.7894 14.3979 18.8167C14.4363 18.9309 14.3474 19.0809 14.2358 19.1576L14.2184 19.1712C14.2096 19.1763 14.1974 19.1848 14.1922 19.1865C14.1817 19.1917 14.1643 19.2002 14.1486 19.2053C14.1155 19.2172 14.0806 19.2257 14.0423 19.2326C14.0039 19.2394 13.9638 19.2445 13.922 19.2479C13.8819 19.2496 13.8348 19.2564 13.7947 19.2564H13.7895C13.7407 19.2632 13.6762 19.2615 13.6221 19.2632C13.5663 19.2632 13.5123 19.2598 13.46 19.2513C13.4338 19.2462 13.4094 19.2411 13.385 19.2326C13.3589 19.2223 13.3432 19.2155 13.3153 19.1985C13.2874 19.1831 13.2717 19.1678 13.2508 19.1525C13.2316 19.1337 13.2107 19.115 13.195 19.0928C13.1601 19.0502 13.134 19.0008 13.1218 18.9462C13.1165 18.9189 13.1096 18.8917 13.1148 18.8644C13.1148 18.8371 13.1253 18.8099 13.1375 18.7843C13.1497 18.7587 13.1688 18.7383 13.1898 18.7178C13.2142 18.7008 13.2386 18.6854 13.2665 18.6752C13.3223 18.6513 13.3833 18.6496 13.4426 18.6479L13.4391 18.6445ZM13.4391 18.6445C13.3798 18.6445 13.3188 18.6479 13.2612 18.6667C13.2316 18.6735 13.2055 18.6905 13.1793 18.7042C13.1549 18.7229 13.1305 18.7434 13.1148 18.7689C13.0974 18.7945 13.0852 18.8235 13.0799 18.8542C13.073 18.8849 13.0712 18.9155 13.073 18.9479C13.0747 19.011 13.0956 19.0723 13.1253 19.1286C13.1392 19.1576 13.1566 19.1831 13.1758 19.2104C13.1967 19.236 13.2211 19.2667 13.2421 19.2837C13.2612 19.3025 13.2944 19.3297 13.3223 19.3468C13.3519 19.3655 13.3833 19.3792 13.4147 19.3928C13.4774 19.4167 13.5437 19.432 13.6064 19.4422C13.6727 19.4524 13.7285 19.4576 13.7982 19.4593H13.793C13.8418 19.4644 13.8854 19.4644 13.9342 19.4644C13.9813 19.4644 14.0301 19.461 14.0806 19.4524C14.1312 19.4456 14.1817 19.4337 14.2323 19.4115C14.2585 19.4013 14.2811 19.3894 14.309 19.374L14.3386 19.3553L14.3735 19.328C14.4589 19.2615 14.52 19.1712 14.5566 19.0706C14.5723 19.0195 14.5827 18.9667 14.5792 18.9104C14.5792 18.8559 14.5601 18.7962 14.5304 18.7468C14.4973 18.6974 14.452 18.6582 14.3997 18.6377C14.3509 18.6155 14.2986 18.607 14.2463 18.6036C14.1974 18.6019 14.1521 18.607 14.1068 18.6104L13.9725 18.6224C13.793 18.6377 13.6152 18.6428 13.4356 18.6445H13.4391Z"/>
<path fill="#151515" d="M14.1428 18.6445C13.9633 18.6445 13.7854 18.6377 13.6059 18.6224L13.4716 18.6104C13.4263 18.607 13.381 18.6019 13.3322 18.6036C13.2799 18.607 13.2293 18.6155 13.1787 18.6377C13.1282 18.6582 13.0828 18.6974 13.048 18.7468C13.0183 18.7962 12.9992 18.8542 12.9992 18.9104C12.9957 18.9667 13.0061 19.0195 13.0218 19.0706C13.0584 19.1695 13.1195 19.2615 13.2049 19.328L13.2398 19.3553L13.2694 19.374C13.2973 19.3894 13.3217 19.4013 13.3461 19.4115C13.3967 19.432 13.4472 19.4439 13.4978 19.4524C13.5483 19.461 13.5971 19.4627 13.6442 19.4644C13.693 19.4644 13.7366 19.4644 13.7854 19.4593H13.7802C13.8499 19.4593 13.9057 19.4524 13.972 19.4422C14.0347 19.432 14.101 19.4167 14.1637 19.3928C14.1951 19.3809 14.2265 19.3655 14.2561 19.3468C14.284 19.3314 14.3172 19.3042 14.3363 19.2837C14.3573 19.2667 14.3817 19.236 14.4026 19.2104C14.42 19.1831 14.4392 19.1576 14.4531 19.1286C14.481 19.0723 14.502 19.011 14.5054 18.9479C14.5054 18.9172 14.5054 18.8849 14.4985 18.8542C14.4932 18.8235 14.4793 18.7945 14.4636 18.7689C14.4462 18.7417 14.4235 18.7229 14.3991 18.7042C14.3712 18.6888 14.3468 18.6735 14.3172 18.6667C14.2596 18.6479 14.1986 18.6445 14.1393 18.6445H14.1428ZM14.1428 18.6445C14.2021 18.6462 14.2631 18.6479 14.3189 18.6718C14.3468 18.6803 14.3729 18.6974 14.3956 18.7144C14.4165 18.7349 14.4357 18.7553 14.4479 18.7809C14.4601 18.8064 14.4688 18.832 14.4706 18.861C14.4758 18.8883 14.4706 18.9172 14.4636 18.9428C14.4514 18.9973 14.4252 19.0468 14.3904 19.0894C14.3747 19.1115 14.3538 19.1303 14.3346 19.149C14.3119 19.1644 14.298 19.1797 14.2701 19.1951C14.2422 19.2121 14.2265 19.2189 14.2003 19.2292C14.1759 19.2377 14.1515 19.2445 14.1254 19.2479C14.0731 19.2564 14.019 19.2615 13.9633 19.2598C13.9092 19.2581 13.8447 19.2598 13.7959 19.253H13.7907C13.7506 19.253 13.7052 19.2479 13.6634 19.2445C13.6216 19.2411 13.5815 19.236 13.5431 19.2292C13.5047 19.2223 13.4699 19.2121 13.4368 19.2019C13.4211 19.1968 13.4036 19.1883 13.3932 19.1831C13.3879 19.1814 13.3757 19.1729 13.367 19.1678L13.3496 19.1542C13.238 19.0775 13.1491 18.9275 13.1875 18.8133C13.1997 18.7877 13.2153 18.7587 13.245 18.74C13.2729 18.7195 13.3095 18.7042 13.3461 18.6939C13.3635 18.6871 13.3879 18.6871 13.4106 18.682C13.4333 18.6786 13.4524 18.6769 13.4751 18.6752L13.6093 18.6633C13.7889 18.6479 13.9667 18.6428 14.1463 18.6411L14.1428 18.6445Z"/>
<path fill="#151515" d="M13.7264 20.2334H13.9008V21.3396H13.7264V20.2334Z"/>
<path fill="white" d="M19.7635 20.9899C17.524 20.9899 15.7084 19.2148 15.7084 17.0252C15.7084 14.8356 17.524 13.0605 19.7635 13.0605C22.0031 13.0605 23.8186 14.8356 23.8186 17.0252C23.8186 19.2148 22.0031 20.9899 19.7635 20.9899Z"/>
<path fill="#C2C2C1" d="M22.9469 17.0254C22.9469 14.98 21.3622 13.296 19.3277 13.0829C19.4706 13.0676 19.6171 13.0591 19.7635 13.0591C22.0038 13.0591 23.8186 14.8352 23.8186 17.0237C23.8186 19.2123 22.002 20.9884 19.7635 20.9884C19.6171 20.9884 19.4706 20.9799 19.3277 20.9645C21.3622 20.7515 22.9469 19.0691 22.9469 17.022V17.0254Z"/>
<path fill="#151515" d="M19.7635 21.1178C22.0717 21.1178 23.9494 19.2821 23.9494 17.0253C23.9494 14.7686 22.0717 12.9329 19.7635 12.9329C17.4553 12.9329 15.5777 14.7686 15.5777 17.0253C15.5777 19.2821 17.4553 21.1178 19.7635 21.1178ZM19.7635 13.1868C21.927 13.1868 23.6878 14.9084 23.6878 17.0236C23.6878 19.1389 21.927 20.8605 19.7635 20.8605C17.6 20.8605 15.8392 19.1389 15.8392 17.0236C15.8392 14.9084 17.6 13.1868 19.7635 13.1868Z"/>
<path fill="#151515" d="M20.9441 17.8297C20.506 17.8297 20.1508 17.4824 20.1508 17.0541C20.1508 16.6258 20.506 16.2786 20.9441 16.2786C21.3822 16.2786 21.7373 16.6258 21.7373 17.0541C21.7373 17.4824 21.3822 17.8297 20.9441 17.8297Z"/>
<path fill="white" d="M20.7242 16.8568C20.6029 16.8568 20.5046 16.7812 20.5046 16.688C20.5046 16.5948 20.6029 16.5193 20.7242 16.5193C20.8456 16.5193 20.9439 16.5948 20.9439 16.688C20.9439 16.7812 20.8456 16.8568 20.7242 16.8568Z"/>
<path fill="white" d="M9.12038 20.2146C7.20915 20.2146 5.65979 18.6998 5.65979 16.8312C5.65979 14.9626 7.20915 13.4478 9.12038 13.4478C11.0316 13.4478 12.581 14.9626 12.581 16.8312C12.581 18.6998 11.0316 20.2146 9.12038 20.2146Z"/>
<path fill="#C2C2C1" d="M11.8471 16.8431C11.8471 15.1283 10.5186 13.717 8.81186 13.538C8.93215 13.5261 9.05419 13.5193 9.17796 13.5193C11.0556 13.5193 12.5775 15.0073 12.5775 16.8431C12.5775 18.6788 11.0556 20.1668 9.17796 20.1668C9.05419 20.1668 8.93215 20.16 8.81186 20.1481C10.5169 19.9691 11.8471 18.5578 11.8471 16.8431Z"/>
<path fill="#151515" d="M9.12003 20.3423C11.1005 20.3423 12.7114 18.7674 12.7114 16.8311C12.7114 14.8948 11.1005 13.3198 9.12003 13.3198C7.13956 13.3198 5.52868 14.8948 5.52868 16.8311C5.52868 18.7674 7.13956 20.3423 9.12003 20.3423ZM9.12003 13.5755C10.9558 13.5755 12.4499 15.0363 12.4499 16.8311C12.4499 18.6259 10.9558 20.0867 9.12003 20.0867C7.28426 20.0867 5.79019 18.6259 5.79019 16.8311C5.79019 15.0363 7.28426 13.5755 9.12003 13.5755Z"/>
<path fill="#151515" d="M10.1263 17.5163C9.75267 17.5163 9.44983 17.2202 9.44983 16.8549C9.44983 16.4897 9.75267 16.1936 10.1263 16.1936C10.4998 16.1936 10.8027 16.4897 10.8027 16.8549C10.8027 17.2202 10.4998 17.5163 10.1263 17.5163Z"/>
<path fill="white" d="M9.93976 16.6845C9.83674 16.6845 9.75322 16.6204 9.75322 16.5414C9.75322 16.4623 9.83674 16.3982 9.93976 16.3982C10.0428 16.3982 10.1263 16.4623 10.1263 16.5414C10.1263 16.6204 10.0428 16.6845 9.93976 16.6845Z"/>
<path fill="#C8E8F5" d="M28.7697 25.4883C29.9291 24.6361 30.9855 23.3475 31.2226 21.8987C31.2993 21.4265 31.2436 21.0362 30.8809 20.7106C30.5828 20.443 30.1522 20.2555 29.7739 20.4822C28.7122 21.1214 28.0462 22.3265 27.3471 23.3032"/>
<path fill="#A6BCD0" d="M30.5239 21.5577C30.5989 21.0924 30.5448 20.7055 30.1962 20.3833C30.4455 20.4021 30.6895 20.5401 30.8796 20.7106C31.2422 21.0361 31.298 21.4265 31.2213 21.8986C30.9859 23.3474 29.9294 24.636 28.7683 25.4883L28.3865 24.9019C29.4169 24.0565 30.3095 22.8753 30.5239 21.5577Z"/>
<path fill="#151515" d="M28.7699 25.4883L28.8711 25.4201C28.9373 25.3758 29.0332 25.3127 29.15 25.2207C29.2685 25.1303 29.408 25.0195 29.5632 24.8815C29.7201 24.7468 29.8857 24.5832 30.0583 24.3974C30.4 24.0224 30.7591 23.54 31.0241 22.9571C31.1566 22.6673 31.263 22.3503 31.3275 22.0196C31.3955 21.6975 31.4268 21.3123 31.249 20.9697C31.1619 20.8026 31.0294 20.6611 30.8916 20.5538C30.7469 20.4396 30.5865 20.3492 30.4052 20.2964C30.2257 20.2452 30.0165 20.2435 29.8386 20.3202C29.7916 20.3373 29.7567 20.3594 29.7079 20.3867L29.6068 20.4532C29.5405 20.4958 29.4743 20.5452 29.408 20.5964C29.1465 20.7958 28.9303 21.0174 28.7386 21.239C28.5468 21.4605 28.3829 21.6804 28.24 21.8884C27.954 22.3043 27.7448 22.6656 27.5879 22.9128L27.3474 23.3031C27.3474 23.3031 27.4537 23.1736 27.6315 22.94C27.8059 22.7048 28.0552 22.3673 28.362 21.9736C28.5172 21.7776 28.6897 21.5713 28.885 21.3634C29.0803 21.1571 29.3017 20.9543 29.5457 20.7753C29.605 20.731 29.6678 20.6867 29.7375 20.6441L29.8404 20.5793C29.8648 20.5691 29.8979 20.5469 29.9293 20.5384C30.0548 20.489 30.196 20.4924 30.3355 20.5299C30.4732 20.5708 30.6109 20.6492 30.7278 20.743C30.8515 20.8435 30.9509 20.9526 31.0172 21.0839C31.1549 21.3429 31.1427 21.6617 31.0799 21.9719C31.0206 22.2821 30.9352 22.5855 30.8132 22.8668C30.6929 23.148 30.5552 23.4105 30.407 23.6508C30.257 23.8895 30.0984 24.1059 29.945 24.3019C29.7863 24.4928 29.6381 24.6667 29.4952 24.8133C29.3557 24.9616 29.2267 25.0826 29.1186 25.1815C29.0105 25.2803 28.9234 25.357 28.8641 25.4082L28.7717 25.4866L28.7699 25.4883Z"/>
<path fill="#292929" d="M8.02164 10.1426C8.10881 10.146 9.13914 10.1954 10.3438 10.3931L10.3124 10.9539C9.11822 10.6914 8.16808 10.2227 8.0199 10.1426V10.1409L8.02164 10.1426Z"/>
<path fill="#151515" d="M10.4361 11.1123L10.4814 10.2857L10.3664 10.2669C9.16169 10.0692 8.14007 10.0198 8.0285 10.0146H7.92215L7.86985 10.2073L7.95877 10.2567C7.96923 10.2618 8.97341 10.7902 10.2862 11.08L10.4378 11.114L10.4361 11.1123ZM10.2077 10.5004L10.192 10.7953C9.60276 10.6555 9.08847 10.4715 8.71539 10.318C9.10939 10.3521 9.63414 10.4101 10.2077 10.5004Z"/>
<path fill="#323232" d="M10.5791 7.28396C11.2416 3.3534 16.3497 3.40113 16.3497 3.40113C16.3497 3.40113 21.4438 3.04148 22.3591 6.92261C22.5613 8.0169 22.8594 10.5702 22.8594 10.5702C22.8594 10.5702 21.0393 11.2998 16.6146 11.5929C12.1795 11.5725 10.3158 10.9554 10.3158 10.9554C10.3158 10.9554 10.4483 8.39018 10.5808 7.28567L10.5791 7.28396Z"/>
<g opacity="0.5" style="mix-blend-mode:multiply">
<g opacity="0.5" style="mix-blend-mode:multiply">
<path fill="#323232" d="M10.5787 7.28385C10.9448 5.10892 12.6742 4.1527 14.1439 3.73169C13.9643 4.08622 13.8283 4.48678 13.7516 4.94018C13.7499 4.95552 13.7481 4.97086 13.7464 4.9862C13.4988 7.13727 15.2125 9.04289 17.5086 9.17755C18.1763 9.21675 18.9329 9.24232 19.7854 9.24743C20.9064 9.17243 21.86 9.07016 22.6585 8.95937C22.7701 9.82014 22.8572 10.5684 22.8572 10.5684C22.8572 10.5684 21.0372 11.2979 16.6125 11.5911C12.1773 11.5707 10.3137 10.9536 10.3137 10.9536C10.3137 10.9536 10.4462 8.38837 10.5787 7.28385Z"/>
</g>
</g>
<path fill="#444340" d="M16.5658 10.1373C20.3245 9.88846 22.2039 9.32428 22.6851 9.16064C22.7844 9.93448 22.8594 10.5703 22.8594 10.5703C22.8594 10.5703 21.0393 11.2998 16.6146 11.593C12.1795 11.5725 10.3158 10.9555 10.3158 10.9555C10.3158 10.9555 10.349 10.3163 10.3978 9.53734C10.8877 9.67199 12.8001 10.1203 16.5676 10.1373H16.5658Z"/>
<path fill="#151515" d="M16.6127 11.7208C21.0182 11.4293 22.833 10.7185 22.908 10.6878C22.962 10.6657 22.9952 10.6111 22.9882 10.5549C22.9882 10.5549 22.9132 9.91741 22.8139 9.14357C22.8086 9.10607 22.786 9.07198 22.7528 9.05152C22.7197 9.03107 22.6779 9.02596 22.6413 9.03959C22.1584 9.20493 20.2929 9.7623 16.5621 10.0095C12.8226 9.9907 10.9258 9.54924 10.4324 9.41458C10.3941 9.40435 10.354 9.41117 10.3209 9.43333C10.2877 9.45549 10.2686 9.49128 10.2668 9.52878C10.218 10.3077 10.1831 10.9486 10.1831 10.9486C10.1796 11.0066 10.2163 11.0577 10.272 11.0765C10.3488 11.102 12.2054 11.7003 16.6127 11.7208ZM22.7162 10.485C22.2943 10.6299 20.4098 11.2128 16.604 11.4651C12.7964 11.4463 10.8787 10.981 10.4499 10.8617C10.4603 10.6708 10.4847 10.2276 10.5179 9.70094C11.1978 9.86968 13.1068 10.2481 16.5656 10.2651C16.5691 10.2651 16.5726 10.2651 16.5743 10.2651C20.0262 10.0367 21.9056 9.54071 22.575 9.33106C22.6413 9.85434 22.6953 10.2958 22.7162 10.485Z"/>
<g opacity="0.5" style="mix-blend-mode:multiply">
<g opacity="0.5" style="mix-blend-mode:multiply">
<path fill="#8A8A8A" d="M16.5933 11.0012C20.1445 10.7711 22.0901 10.2853 22.798 10.0723C22.8346 10.3757 22.8572 10.5683 22.8572 10.5683C22.8572 10.5683 21.0372 11.2978 16.6125 11.591C12.1773 11.5705 10.3137 10.9535 10.3137 10.9535C10.3137 10.9535 10.3241 10.7592 10.3416 10.4541C11.0633 10.6228 13.0351 10.9893 16.5933 10.9995V11.0012Z"/>
</g>
</g>
<path fill="#323232" d="M8.01598 10.1424C8.15022 10.214 9.10733 10.6896 10.312 10.9538C10.312 10.9538 12.1757 11.5708 16.6108 11.5912C21.0355 11.2981 22.8556 10.5685 22.8556 10.5685C24.041 10.2293 24.9668 9.69754 25.0958 9.61743C25.3538 10.0026 25.3608 10.3333 25.2806 10.5924C25.2021 10.8532 25.0138 11.0748 24.768 11.2197C22.1216 12.7622 16.6509 12.9173 16.6509 12.9173C16.6509 12.9173 11.1802 13.0997 8.43962 11.7208C8.18509 11.5929 7.9846 11.3833 7.88871 11.1276C7.79283 10.8719 7.77888 10.543 8.01075 10.1424H8.01598Z"/>
<path fill="#151515" d="M15.9628 13.0538C16.3603 13.0538 16.6148 13.0453 16.6601 13.0453C16.885 13.0385 22.1953 12.8732 24.84 11.3306C25.1207 11.167 25.3229 10.9181 25.4101 10.6301C25.5182 10.2738 25.4502 9.90906 25.2079 9.5477C25.1695 9.49146 25.0911 9.47271 25.0318 9.5068C25.0178 9.51532 24.0747 10.088 22.8194 10.4477C22.7881 10.4596 20.9471 11.1772 16.6026 11.4653C12.2476 11.4448 10.3735 10.8397 10.3543 10.8329C9.066 10.5482 8.08797 10.0352 8.07925 10.0301C8.01649 9.99599 7.93629 10.0181 7.89968 10.0795C7.68176 10.4545 7.63818 10.8227 7.76719 11.1721C7.87179 11.4533 8.09145 11.6903 8.38085 11.8351C10.567 12.9345 14.3885 13.0538 15.9593 13.0538H15.9628ZM25.0544 9.79315C25.2026 10.0573 25.2358 10.3079 25.1591 10.5568C25.0911 10.7818 24.9289 10.9795 24.7058 11.109C22.1186 12.6175 16.7054 12.7862 16.6514 12.7879C16.5956 12.7897 11.1824 12.9533 8.50463 11.6067C8.27276 11.4891 8.09843 11.3033 8.01649 11.0835C7.92409 10.8363 7.94327 10.584 8.07228 10.3147C8.42967 10.4903 9.29786 10.8619 10.2864 11.08C10.3509 11.1022 12.2076 11.7005 16.613 11.7209C21.0185 11.4295 22.8334 10.7187 22.9084 10.688C23.8655 10.4153 24.704 9.99258 25.0544 9.79315Z"/>
<g opacity="0.5" style="mix-blend-mode:multiply">
<g opacity="0.5" style="mix-blend-mode:multiply">
<path fill="#323232" d="M8.01608 10.1426C8.07536 10.175 8.30025 10.2875 8.63847 10.4255C8.6437 10.4392 8.64718 10.4528 8.65241 10.4664C8.7483 10.7221 8.94879 10.9318 9.20332 11.0596C11.9439 12.4368 17.4146 12.2561 17.4146 12.2561C17.4146 12.2561 22.4965 12.113 25.2336 10.7204C25.1395 10.9249 24.9756 11.0988 24.7699 11.2181C22.1234 12.7607 16.6527 12.9158 16.6527 12.9158C16.6527 12.9158 11.182 13.0982 8.44146 11.7192C8.18693 11.5914 7.98645 11.3817 7.89056 11.1261C7.79468 10.8704 7.78073 10.5414 8.0126 10.1409L8.01608 10.1426Z"/>
</g>
</g>
<path fill="#292929" d="M25.0927 9.61743C25.0055 9.62595 23.9822 9.73845 22.7914 10.0112L22.8577 10.5702C24.0327 10.2345 24.9515 9.70947 25.0944 9.62084V9.61914L25.0927 9.61743Z"/>
<path fill="#151515" d="M22.7457 10.734L22.8939 10.6914C24.1857 10.3215 25.155 9.73346 25.1637 9.72664L25.2526 9.6721L25.1812 9.47949L25.0783 9.48972C24.9667 9.50165 23.9486 9.61415 22.7614 9.88516L22.648 9.91073L22.7474 10.7323L22.7457 10.734ZM24.4123 9.83573C24.0497 10.0113 23.5476 10.2261 22.9688 10.4016L22.934 10.1085C23.5006 9.98232 24.0218 9.89368 24.4123 9.83573Z"/>
<path fill="#151515" d="M16.6128 11.721C21.0183 11.4295 22.8331 10.7188 22.9081 10.6881L22.9987 10.6506L22.9883 10.5551C22.9848 10.5296 22.6884 7.98645 22.4879 6.90068C21.557 2.95137 16.3931 3.27011 16.3408 3.27352C16.2955 3.27352 11.1229 3.27352 10.4499 7.26374V7.27056C10.3174 8.36655 10.1849 10.9233 10.1832 10.9489L10.178 11.046L10.2721 11.0767C10.3488 11.1023 12.2055 11.7005 16.6128 11.721ZM22.7163 10.4852C22.2944 10.6301 20.4098 11.2131 16.604 11.4653C12.7965 11.4466 10.8788 10.9812 10.4499 10.8619C10.4761 10.3779 10.5929 8.26939 10.708 7.30294C11.3478 3.52578 16.292 3.5326 16.3478 3.52919C16.4088 3.52578 21.353 3.22238 22.2299 6.95182C22.406 7.90293 22.6588 10.0029 22.7163 10.4852Z"/>
<path fill="#C8E8F5" d="M24.3278 10.0474C23.7595 10.3099 23.1493 10.4513 22.5443 10.6184C22.4397 10.5468 22.3473 10.4684 22.2776 10.3934C22.0266 10.1172 22.2323 9.80191 22.2567 9.4951C22.2898 9.09966 22.2358 8.65138 22.56 8.36161C22.9105 8.04799 23.566 8.14855 23.9739 8.3173C24.4167 8.49968 24.6538 8.87808 24.5911 9.34852C24.5579 9.59567 24.4586 9.82918 24.3243 10.0474H24.3278Z"/>
<path fill="#A6BCD0" d="M22.7518 8.71091C22.7378 8.69046 22.7309 8.6683 22.7431 8.64614C22.7535 8.62739 22.7762 8.62057 22.7971 8.61375C22.8825 8.58989 22.9732 8.58478 23.0621 8.58648C23.3515 8.58989 23.6479 8.65637 23.8797 8.82681C23.9425 8.87284 24.0035 8.9342 24.007 9.0109C24.007 9.02795 24.007 9.04669 23.9948 9.06033C23.9826 9.07567 23.9634 9.08078 23.9442 9.0876C23.7019 9.16771 23.5258 9.33135 23.3654 9.51884C23.287 9.60918 23.226 9.71315 23.1859 9.82565C23.1667 9.88019 23.1528 9.93644 23.144 9.99269C23.1406 10.0148 23.1475 10.1495 23.1353 10.158C23.0848 10.1972 23.0325 10.2296 22.9767 10.2501C22.9261 10.0285 23.0394 9.56827 23.0272 9.40975C23.0133 9.24101 22.9714 9.09272 22.893 8.94102C22.8634 8.88306 22.8355 8.82341 22.7988 8.77057C22.7866 8.75352 22.7657 8.73136 22.75 8.7092L22.7518 8.71091Z"/>
<path fill="#151515" d="M22.5287 10.712L22.5688 10.7018C22.6717 10.6728 22.7763 10.6455 22.8792 10.6183C23.376 10.4853 23.8886 10.3456 24.3663 10.1257L24.3907 10.1154L24.4046 10.0933C24.558 9.84614 24.6522 9.60069 24.6836 9.36206C24.7498 8.86094 24.4988 8.44164 24.0141 8.2405C23.648 8.08881 22.9193 7.93199 22.5078 8.30016C22.2167 8.56095 22.2027 8.91889 22.187 9.26661C22.1836 9.34161 22.1801 9.41661 22.1748 9.4899C22.1679 9.57001 22.1469 9.65353 22.126 9.74046C22.0702 9.96545 22.0057 10.2211 22.2167 10.4529C22.2899 10.533 22.3875 10.6149 22.4974 10.6916L22.5305 10.7154L22.5287 10.712ZM24.2669 9.98079C23.8101 10.1887 23.3133 10.3234 22.8321 10.4529C22.7414 10.4768 22.6508 10.5024 22.5619 10.5262C22.4764 10.4649 22.4015 10.4001 22.3439 10.337C22.194 10.1734 22.2393 9.98932 22.2916 9.77796C22.3143 9.68762 22.337 9.59558 22.3457 9.50183C22.3527 9.42683 22.3544 9.34843 22.3579 9.27172C22.3718 8.94446 22.384 8.63595 22.6211 8.42459C22.9227 8.15358 23.519 8.22005 23.9426 8.39561C24.3575 8.56777 24.565 8.91037 24.5075 9.3382C24.4796 9.54615 24.3994 9.76262 24.2669 9.98079Z"/>
<path fill="#151515" d="M24.0399 9.04491C24.0399 9.04491 24.0103 9.04491 23.9615 9.05173C23.9127 9.05684 23.8377 9.07218 23.7558 9.10287C23.6721 9.13184 23.5814 9.18127 23.4908 9.24434C23.4489 9.27843 23.4001 9.31252 23.36 9.35513C23.3182 9.39433 23.2816 9.44206 23.2415 9.48638C23.2084 9.53581 23.1735 9.58353 23.1473 9.63467C23.116 9.6841 23.0985 9.73864 23.0776 9.78807C23.0427 9.89205 23.0201 9.99261 23.0183 10.0795C23.0131 10.1665 23.0218 10.2381 23.0323 10.2858C23.0427 10.3352 23.0497 10.3625 23.0497 10.3625L23.0671 10.2875C23.0759 10.2398 23.0933 10.1733 23.1177 10.0966C23.1282 10.0574 23.1456 10.0182 23.1613 9.97557C23.1752 9.93295 23.2014 9.89205 23.2188 9.84603C23.2659 9.7591 23.3182 9.67046 23.381 9.58694C23.4437 9.50342 23.5152 9.42672 23.5867 9.35854C23.625 9.32786 23.6582 9.29206 23.6965 9.26479C23.7331 9.23752 23.7662 9.20854 23.8011 9.18639C23.8691 9.14036 23.9249 9.10457 23.9702 9.08071C24.0138 9.05684 24.0382 9.0415 24.0382 9.0415L24.0399 9.04491Z"/>
<path fill="#151515" d="M22.7119 8.67333C22.7119 8.67333 22.7816 8.76708 22.8514 8.91196C22.8845 8.98525 22.9194 9.07048 22.9438 9.16593C22.956 9.21366 22.9647 9.26309 22.9734 9.31252C22.9804 9.36024 22.9874 9.4182 22.9891 9.46763C23.0065 9.67728 22.9839 9.88693 22.9438 10.0437C22.9246 10.1222 22.9037 10.1886 22.888 10.2346L22.8636 10.3079C22.8636 10.3079 22.8845 10.2875 22.9176 10.25C22.9507 10.2125 22.9943 10.1545 23.0362 10.0761C23.078 9.99943 23.1164 9.90227 23.139 9.79489C23.1634 9.68751 23.1687 9.5699 23.1617 9.45228C23.1565 9.39092 23.1477 9.33979 23.1373 9.28013C23.1268 9.22218 23.1059 9.16763 23.0867 9.1165C23.0466 9.01253 22.9908 8.92389 22.9333 8.85571C22.8775 8.78753 22.82 8.74151 22.7782 8.71083C22.7363 8.68185 22.7102 8.66992 22.7102 8.66992L22.7119 8.67333Z"/>
<path fill="white" d="M16.9082 23.874L18.085 27.5489L16.5787 28.6415L13.3779 24.8643L14.9905 23.874H16.9082Z"/>
<path fill="#29438D" d="M27.9017 21.5953C28.0831 21.5731 28.2748 21.5953 28.4509 21.5458C28.6061 21.5015 28.9146 21.0464 28.9966 20.9578C29.1936 20.743 28.9565 20.3459 28.878 20.1277C28.899 20.1873 27.7065 20.489 27.5478 20.5299C26.6866 20.7498 25.8725 21.0396 25.0914 21.3617C23.4997 22.0163 18.6549 24.2423 17.8965 24.7435C16.8871 25.4116 16.2613 26.2843 15.6563 27.1383C15.5552 27.2814 15.4523 27.4263 15.4035 27.5797C15.3477 27.757 15.3652 27.9394 15.3843 28.1201C15.5168 29.4462 15.6493 30.7757 16.0102 32.083C16.1584 32.6182 16.3484 33.1551 16.7389 33.6341C17.1312 34.1131 17.7466 34.5324 18.5311 34.7045C19.3122 34.8767 20.1647 34.7914 20.9788 34.7045C22.9558 34.4915 24.9328 34.2801 26.9098 34.067C27.8372 33.9682 28.8362 33.8438 29.476 33.3921C30.4017 32.7392 30.7417 31.8938 30.8951 31.0262C31.2037 29.2842 31.1026 27.5133 30.4418 25.8088C30.3669 25.6162 30.3093 25.4184 30.2518 25.2224C30.1751 24.9633 30.0705 24.7349 29.9136 24.5014C29.9101 24.7025 29.8979 24.9054 29.8752 25.1065C29.87 25.1474 29.8648 25.19 29.8456 25.2292C29.8195 25.2821 29.7671 25.323 29.7183 25.3639C29.4952 25.5463 29.2877 25.744 29.1029 25.9554C29.0524 26.0133 29.0018 26.073 28.9356 26.1173C28.6218 26.3252 28.1458 26.1173 27.846 25.9809C27.4415 25.7985 26.9359 25.5548 26.6517 25.2412C26.5001 25.0741 26.331 24.9071 26.2124 24.7179C26.0398 24.4844 25.9474 24.2321 25.9335 23.9628C25.8725 23.7259 25.8794 23.4889 25.9474 23.252C25.9439 22.9895 26.0102 22.7441 26.1497 22.514C26.2194 22.3265 26.2961 22.0538 26.5192 21.9617C26.589 21.9327 26.6762 21.9123 26.6988 21.8492C26.7424 21.7282 26.9551 21.747 27.098 21.7197C27.3648 21.6668 27.6333 21.6328 27.9035 21.5987L27.9017 21.5953Z"/>
<path fill="#13338F" d="M17.8355 34.0211C18.6166 34.1932 19.4691 34.108 20.2832 34.0211C22.2602 33.808 24.2372 33.5966 26.2142 33.3836C27.1416 33.2847 28.1406 33.1603 28.7804 32.7086C29.7061 32.0558 30.0461 31.2103 30.1995 30.3428C30.4976 28.6553 30.4105 26.9389 29.8038 25.2821C29.8195 25.2651 29.8369 25.2463 29.8456 25.2259C29.8648 25.1867 29.87 25.1458 29.8752 25.1031C29.8979 24.902 29.9101 24.7009 29.9136 24.498C30.0722 24.7316 30.1768 24.96 30.2518 25.219C30.3093 25.4151 30.3669 25.6128 30.4418 25.8054C31.1026 27.5099 31.2037 29.2826 30.8951 31.0228C30.7417 31.8887 30.4 32.7342 29.476 33.3887C28.8362 33.8404 27.8372 33.9648 26.9098 34.0637C24.9328 34.2767 22.9558 34.4881 20.9788 34.7011C20.1647 34.7881 19.3139 34.8733 18.5311 34.7011C17.7466 34.529 17.1312 34.1097 16.7389 33.6307C16.7023 33.5864 16.6692 33.5404 16.6361 33.4944C16.9708 33.7296 17.3718 33.9171 17.8338 34.0194L17.8355 34.0211Z"/>
<path fill="#151515" d="M15.2775 27.549C15.3315 27.3786 15.4396 27.2252 15.5442 27.0769C16.1213 26.2638 16.7751 25.3417 17.8176 24.6514C18.5917 24.14 23.4766 21.8986 25.0352 21.2577C25.926 20.8913 26.7367 20.6169 27.5247 20.4157C28.487 20.1703 28.7206 20.0816 28.7729 20.0578C28.7886 20.039 28.8113 20.0237 28.8392 20.0169C28.9072 19.9981 28.9804 20.0322 29.0031 20.0919C29.0606 20.2538 29.139 20.5112 29.2402 20.8811C29.153 20.9134 29.0745 20.9629 29.0118 21.0276C28.9246 20.7072 28.8549 20.4652 28.7991 20.2947C28.6248 20.3578 28.2813 20.4583 27.584 20.6356C26.8221 20.8299 26.0254 21.0992 25.1467 21.4606C23.5951 22.0981 18.7398 24.3241 17.9762 24.8304C16.9738 25.4934 16.3601 26.3576 15.7674 27.1945C15.6715 27.3292 15.5739 27.4672 15.5303 27.607C15.4815 27.7655 15.4972 27.9394 15.5146 28.1081C15.6436 29.4086 15.7779 30.7535 16.1387 32.054C16.2782 32.5602 16.4613 33.0938 16.8483 33.5659C17.2649 34.0755 17.8751 34.4403 18.5655 34.592C19.3413 34.7625 20.2043 34.6704 20.9644 34.5886L26.8953 33.9511C27.6816 33.8659 28.7572 33.7517 29.3953 33.3C30.1589 32.7597 30.5826 32.0523 30.7691 31.0057C31.0916 29.1802 30.9417 27.4434 30.3211 25.8411C30.3088 25.8122 30.2792 25.7286 30.2356 25.6161C30.1851 25.4798 30.0962 25.2463 30.009 25.0179C29.9183 25.2838 29.3988 25.9758 29.1983 26.1428L29.1739 26.1633C29.1199 26.2093 29.0606 26.2604 28.9769 26.2911C28.8566 26.3371 28.7294 26.3269 28.6108 26.3099C28.0616 26.2315 27.2754 26.0678 26.7942 25.5514C26.4821 25.2156 26.137 24.8235 25.9923 24.4128C25.6941 23.5622 25.7883 22.3827 26.5397 21.781C26.7175 21.6157 27.9239 21.4316 28.6875 21.36C28.6073 21.4265 28.5498 21.51 28.5167 21.6055C27.8158 21.6873 26.85 21.8407 26.7245 21.9395C26.0446 22.485 25.9661 23.5639 26.2416 24.3463C26.3723 24.7179 26.7001 25.0894 26.9964 25.4082C27.3207 25.7559 27.8472 25.9707 28.6526 26.0866C28.745 26.1002 28.8165 26.1036 28.8706 26.0832C28.9107 26.0678 28.949 26.0354 28.9891 25.9996L29.0153 25.9775C29.2489 25.7832 29.7405 25.0622 29.7597 24.9497C29.7841 24.7997 29.683 24.5781 29.8242 24.4707L29.9462 24.3787C29.9462 24.3787 29.9619 24.3667 29.9724 24.3667C29.9828 24.3667 29.9933 24.3736 30.002 24.3804C30.1275 24.4844 30.1746 24.7315 30.2304 24.8781C30.3158 25.1014 30.3995 25.323 30.4832 25.5463C30.525 25.6588 30.5564 25.7406 30.5669 25.7695C31.2015 27.4059 31.3549 29.1785 31.0254 31.0398C30.8301 32.1461 30.3768 32.8977 29.5592 33.4756C28.9159 33.9307 27.9466 34.067 26.9267 34.1761L20.9958 34.8136C20.5407 34.863 20.0509 34.9159 19.5575 34.9159C19.2018 34.9159 18.8462 34.8886 18.501 34.8119C17.7496 34.6465 17.0871 34.2511 16.6338 33.6971C16.2224 33.1943 16.0306 32.6352 15.8842 32.1069C15.5198 30.791 15.3856 29.4359 15.2548 28.1269C15.2357 27.9394 15.2165 27.745 15.2792 27.5473L15.2775 27.549Z"/>
<path fill="#29438D" d="M10.6546 23.7223C11.1236 23.8825 13.2976 24.6205 13.8624 24.9018C15.0427 25.4915 15.8656 26.3506 16.5908 27.1074C16.7233 27.2455 16.8593 27.3869 16.9412 27.5523C17.0371 27.7432 17.0493 27.9375 17.0615 28.1267C17.1435 29.4426 17.2289 30.8044 17.0737 32.1493C17.011 32.6896 16.9064 33.2623 16.5681 33.8026C16.1951 34.3958 15.5814 34.8509 14.8405 35.0861C14.4988 35.1935 14.1379 35.2549 13.7735 35.2873C13.4702 35.3145 13.0797 35.3776 12.724 35.3606C11.3032 35.2958 10.4907 33.3015 10.0671 32.3828C9.28085 30.6783 9.56153 28.9875 9.6487 27.2403C9.68357 26.5398 9.5964 25.7694 9.5319 25.0603C9.47785 24.4723 9.20763 23.8416 9.05421 23.2604C9.04375 23.2194 10.5413 23.6848 10.6546 23.724V23.7223Z"/>
<path fill="#13338F" d="M9.53215 25.0585C9.4781 24.4705 9.20788 23.8398 9.05446 23.2586C9.04923 23.2364 9.45021 23.3523 9.85293 23.4734C9.94707 23.7768 10.0273 24.0819 10.0552 24.375C10.1197 25.0858 10.2068 25.8545 10.172 26.5551C10.0848 28.3022 9.80585 29.9931 10.5904 31.6975C11.014 32.6163 11.8264 34.6105 13.2473 34.6753C13.6047 34.6923 13.9934 34.6293 14.2968 34.602C14.6611 34.5696 15.022 34.5083 15.3637 34.4009C15.8676 34.2424 16.3086 33.9799 16.659 33.6441C16.6311 33.6969 16.6015 33.7481 16.5701 33.8009C16.1971 34.3941 15.5834 34.8492 14.8425 35.0844C14.5008 35.1918 14.1399 35.2531 13.7755 35.2855C13.4722 35.3128 13.0816 35.3758 12.726 35.3588C11.3052 35.294 10.4927 33.2998 10.0691 32.3811C9.28284 30.6766 9.56353 28.9857 9.65069 27.2386C9.68556 26.538 9.59839 25.7676 9.53389 25.0585H9.53215Z"/>
<path fill="#151515" d="M12.8479 35.4902C13.085 35.4902 13.3273 35.4629 13.5452 35.4391C13.6306 35.4288 13.7108 35.4203 13.7875 35.4135C14.2025 35.376 14.5599 35.3078 14.8824 35.2072C15.6547 34.9635 16.2928 34.4879 16.6815 33.8692C17.0337 33.3084 17.1418 32.7187 17.2063 32.1647C17.3632 30.8096 17.2778 29.4426 17.1941 28.1217C17.1819 27.9291 17.1679 27.7109 17.0616 27.4961C16.9692 27.3137 16.8262 27.1637 16.6885 27.0206C15.9545 26.2552 15.1247 25.3894 13.9235 24.7894C13.5522 24.6036 12.4783 24.2081 10.7332 23.6133L10.7 23.6013C10.639 23.5809 10.2345 23.4548 9.86495 23.344C9.04208 23.0968 9.03685 23.1036 8.96886 23.165C8.93399 23.1974 8.9183 23.2468 8.9305 23.2928C8.98281 23.4906 9.04905 23.6968 9.11181 23.8962C9.23734 24.2883 9.36809 24.6939 9.40296 25.0723L9.42911 25.3502C9.48838 25.9808 9.5494 26.6336 9.51976 27.2353C9.50582 27.508 9.48838 27.7791 9.46921 28.0484C9.36809 29.55 9.27395 30.9682 9.94863 32.4357L10.0323 32.6181C10.4769 33.5982 11.305 35.4237 12.7189 35.4885C12.7607 35.4902 12.8043 35.4919 12.8479 35.4919V35.4902ZM10.6129 23.8434L10.646 23.8553C12.806 24.59 13.5557 24.8934 13.8032 25.0161C14.9626 25.5956 15.7785 26.4461 16.4967 27.1944C16.6223 27.3257 16.7513 27.4603 16.8262 27.6086C16.9099 27.7774 16.9221 27.9512 16.9326 28.1353C17.0145 29.4461 17.0999 30.8011 16.9448 32.1357C16.8838 32.6607 16.7827 33.2181 16.4584 33.7363C16.1027 34.3039 15.5135 34.7385 14.8004 34.9635C14.4971 35.059 14.1589 35.1237 13.7631 35.1595C13.6847 35.1663 13.6027 35.1766 13.5156 35.1851C13.268 35.2124 12.9873 35.243 12.7311 35.2328C11.4793 35.1749 10.6948 33.4448 10.2712 32.5141L10.1875 32.3301C9.53894 30.9204 9.63134 29.533 9.73071 28.0637C9.74815 27.7927 9.76732 27.52 9.78127 27.2456C9.81265 26.6268 9.74989 25.9638 9.68887 25.3246L9.66272 25.0485C9.62611 24.6428 9.49013 24.2235 9.36112 23.8178C9.31753 23.6849 9.27744 23.5553 9.23908 23.4292C9.63134 23.5366 10.4943 23.8025 10.6129 23.8434Z"/>
<path fill="#151515" d="M15.9998 28.5188C15.7658 28.5188 15.5761 28.3334 15.5761 28.1046C15.5761 27.8759 15.7658 27.6904 15.9998 27.6904C16.2337 27.6904 16.4234 27.8759 16.4234 28.1046C16.4234 28.3334 16.2337 28.5188 15.9998 28.5188Z"/>
<path fill="#151515" d="M15.9998 30.2232C15.7658 30.2232 15.5761 30.0377 15.5761 29.809C15.5761 29.5802 15.7658 29.3948 15.9998 29.3948C16.2337 29.3948 16.4234 29.5802 16.4234 29.809C16.4234 30.0377 16.2337 30.2232 15.9998 30.2232Z"/>
<path fill="#151515" d="M15.9998 31.7573C15.7658 31.7573 15.5761 31.5719 15.5761 31.3431C15.5761 31.1144 15.7658 30.929 15.9998 30.929C16.2337 30.929 16.4234 31.1144 16.4234 31.3431C16.4234 31.5719 16.2337 31.7573 15.9998 31.7573Z"/>
<path fill="#151515" d="M15.9998 33.4619C15.7658 33.4619 15.5761 33.2765 15.5761 33.0477C15.5761 32.819 15.7658 32.6335 15.9998 32.6335C16.2337 32.6335 16.4234 32.819 16.4234 33.0477C16.4234 33.2765 16.2337 33.4619 15.9998 33.4619Z"/>
<path fill="#13338F" d="M25.0389 31.1453L24.7669 30.0562L21.1163 31.072L21.3552 32.0265"/>
<path fill="#151515" d="M21.3551 32.1544C21.3656 32.1544 21.376 32.1544 21.3865 32.151C21.4562 32.134 21.4998 32.0658 21.4824 31.9959L21.2732 31.1624L24.6727 30.2164L24.9133 31.1761C24.9308 31.2442 25.0005 31.2868 25.072 31.2698C25.1417 31.2528 25.1853 31.1846 25.1679 31.1147L24.8959 30.0272C24.8872 29.9931 24.8645 29.9642 24.8349 29.9471C24.8035 29.9301 24.7669 29.925 24.7338 29.9352L21.0831 30.9511C21.0152 30.9698 20.9751 31.038 20.9925 31.1045L21.2313 32.059C21.2453 32.1169 21.2993 32.1561 21.3586 32.1561L21.3551 32.1544Z"/>
<path fill="#13338F" d="M10.7296 31.4981L10.9702 30.4958L14.3349 31.4026L14.1222 32.2805"/>
<path fill="#151515" d="M14.1219 32.4082C14.1812 32.4082 14.2353 32.369 14.2492 32.3094L14.4619 31.4316C14.4776 31.3651 14.4375 31.2969 14.3695 31.2782L11.0048 30.3714C10.9699 30.3628 10.9333 30.3663 10.9037 30.385C10.8723 30.402 10.8514 30.431 10.8427 30.4651L10.6003 31.4674C10.5829 31.5355 10.6265 31.6054 10.698 31.6208C10.7694 31.6378 10.8392 31.5952 10.8549 31.5253L11.0658 30.6526L14.1777 31.4912L13.9947 32.2497C13.9772 32.3179 14.0208 32.3878 14.0923 32.4031C14.1028 32.4048 14.1132 32.4065 14.1219 32.4065V32.4082Z"/>
<path fill="white" d="M28.6252 19.1031C28.6879 19.2258 28.993 20.257 28.8378 20.3099C27.8825 20.6286 24.4794 22.0518 23.7141 22.42C21.425 23.5177 19.6084 25.4285 17.2758 26.4375C17.1642 26.1682 15.6562 23.9558 15.4784 24.1484C14.7723 24.9069 14.1465 25.7387 13.6182 26.625C13.7577 26.3915 11.6656 24.7722 11.4303 24.5984C10.6894 24.0529 9.8874 23.5143 8.99479 23.262C8.69842 23.1785 8.52583 22.8103 8.65483 22.5359C9.55441 22.6501 15.0338 23.891 15.6057 23.7649C16.2943 23.6132 18.7664 22.7217 19.4114 22.5802C20.501 22.3416 28.4055 18.6821 28.6252 19.1065V19.1031Z"/>
<path fill="#E5F4F7" d="M9.88241 22.7592C10.4298 23.0319 10.9441 23.3865 11.4305 23.7444C11.6659 23.9183 13.7579 25.5358 13.6185 25.771C14.0456 25.0535 14.5389 24.3751 15.0864 23.7393C15.3409 23.77 15.524 23.7802 15.6059 23.7614C15.6913 23.7427 15.8064 23.712 15.9424 23.6728C16.4532 24.2796 17.2011 25.3978 17.2778 25.5835C19.6104 24.5762 21.427 22.6655 23.7161 21.5661C24.4605 21.2081 27.6927 19.8547 28.7527 19.4866C28.8485 19.8292 28.9409 20.2758 28.8398 20.3081C27.8845 20.6269 24.4814 22.0501 23.7161 22.4183C21.427 23.516 19.6104 25.4267 17.2778 26.4358C17.1662 26.1665 15.6582 23.9541 15.4804 24.1467C14.7743 24.9052 14.1484 25.737 13.6202 26.6233C13.7597 26.3898 11.6676 24.7705 11.4323 24.5966C10.6913 24.0512 9.88938 23.5126 8.99677 23.2603C8.7004 23.1768 8.52781 22.8086 8.65682 22.5342C8.86254 22.5598 9.31232 22.6467 9.88415 22.7609L9.88241 22.7592Z"/>
<path fill="#151515" d="M13.6168 26.7493C13.6621 26.7493 13.7057 26.7271 13.7301 26.6862C14.2427 25.8271 14.8476 25.0175 15.5293 24.2811C15.8588 24.5095 17.0512 26.2345 17.1558 26.4834C17.1698 26.5157 17.1959 26.5413 17.2273 26.5532C17.2604 26.5669 17.2971 26.5652 17.3284 26.5532C18.5662 26.018 19.6733 25.222 20.7437 24.4533C21.7026 23.763 22.6945 23.0505 23.7719 22.534C24.5652 22.1539 27.9386 20.7443 28.8818 20.4307C28.9306 20.4154 28.9689 20.3779 28.9898 20.3267C29.0944 20.0745 28.7928 19.1438 28.7423 19.0466C28.5871 18.7467 27.5568 19.1012 22.9438 21.0409C21.3277 21.721 19.8023 22.3619 19.3839 22.4539C19.0579 22.5255 18.3047 22.7744 17.508 23.0369C16.727 23.2959 15.9181 23.5618 15.5764 23.6368C15.2294 23.7135 12.6039 23.18 10.8675 22.8272C9.85809 22.6227 8.98815 22.4454 8.67086 22.4045C8.61333 22.396 8.55928 22.4267 8.53488 22.4778C8.45817 22.6431 8.46165 22.8391 8.54534 23.0198C8.62902 23.2005 8.77895 23.3317 8.95677 23.3812C9.82323 23.6266 10.6199 24.1584 11.3504 24.697C11.9519 25.1402 13.3989 26.3282 13.4895 26.589C13.4756 26.6436 13.4983 26.7015 13.5506 26.7305C13.5715 26.7424 13.5941 26.7475 13.6168 26.7475V26.7493ZM15.5066 24.005C15.4578 24.005 15.4125 24.0238 15.3811 24.0579C14.7273 24.7601 14.1416 25.5254 13.636 26.3385C13.5035 26.1663 13.2402 25.9055 12.7503 25.4879C12.2099 25.0277 11.6259 24.5777 11.5091 24.4925C10.7577 23.9385 9.93655 23.3914 9.02999 23.1357C8.92539 23.1067 8.83474 23.0249 8.78243 22.9124C8.74582 22.8323 8.73362 22.7505 8.74582 22.6738C9.1189 22.7335 9.91039 22.8937 10.8135 23.0778C13.3169 23.5857 15.2591 23.9692 15.6339 23.8857C15.9878 23.8073 16.8037 23.538 17.5917 23.2772C18.3466 23.0283 19.1276 22.7693 19.4397 22.7011C19.8807 22.6039 21.3487 21.9886 23.0467 21.2744C25.0568 20.429 28.0676 19.1643 28.5244 19.1949C28.5976 19.379 28.7702 20.025 28.7527 20.204C27.7468 20.5483 24.4431 21.9272 23.6569 22.3039C22.5586 22.8306 21.5579 23.5499 20.5903 24.2471C19.5634 24.9851 18.5017 25.7487 17.3337 26.2703C17.0443 25.7794 15.9024 24.0715 15.5415 24.0084C15.5293 24.0067 15.5188 24.005 15.5066 24.005Z"/>
<path fill="#151515" d="M15.6044 24.1139L16.2827 26.6255L16.0299 26.6908L15.3516 24.1792L15.6044 24.1139Z"/>
<path fill="#D03938" d="M17.8984 22.8343C18.1529 23.5485 18.2 24.3326 18.0326 25.0706C18.0134 25.1542 17.989 25.2411 17.9228 25.2973C17.8809 25.3331 17.8251 25.3519 17.7711 25.3655C17.2376 25.4899 16.7233 25.132 16.2962 24.7962L15.9005 24.4843C15.7767 24.6377 15.5657 24.7178 15.3687 24.6888C15.3182 24.682 15.2659 24.6684 15.2171 24.6837C15.1595 24.7025 15.1247 24.7553 15.0915 24.8047C14.83 25.2087 14.504 25.6058 14.0438 25.7695C13.8032 25.8547 13.5155 25.8632 13.3115 25.7115C13.1529 25.5922 13.0745 25.3979 13.0134 25.2104C12.8374 24.6633 12.7519 24.0888 12.7606 23.5161C12.7606 23.3968 12.7694 23.2741 12.8269 23.1701C13.2035 22.4849 14.1675 23.1326 14.5406 23.4258C14.6766 23.5332 14.844 23.7548 15.0009 23.8178C15.1979 23.8979 15.3426 23.719 15.5553 23.7326C15.7139 23.7428 15.8726 23.8587 15.8795 24.0138C16.1829 23.4156 16.5263 22.7866 17.1243 22.4611C17.4521 22.2821 17.7606 22.5173 17.8844 22.8343"/>
<path fill="#86293F" d="M13.0167 24.8697C13.076 25.0572 13.1545 25.2515 13.3149 25.3708C13.5171 25.5225 13.8065 25.5157 14.0471 25.4287C14.5056 25.2651 14.8333 24.868 15.0948 24.464C15.1262 24.4146 15.1628 24.3617 15.2204 24.343C15.2692 24.3276 15.3215 24.343 15.372 24.3481C15.569 24.3771 15.78 24.2952 15.9038 24.1435L16.2995 24.4555C16.7266 24.7912 17.2409 25.1492 17.7744 25.0248C17.8284 25.0128 17.8842 24.9941 17.9261 24.9566C17.9923 24.9003 18.0167 24.8134 18.0359 24.7299C18.0899 24.493 18.1178 24.2509 18.1283 24.0089C18.144 24.3651 18.1144 24.7231 18.0359 25.0708C18.0167 25.1543 17.9923 25.2412 17.9261 25.2975C17.8842 25.3333 17.8284 25.352 17.7744 25.3657C17.2409 25.4901 16.7266 25.1321 16.2995 24.7964L15.9038 24.4844C15.78 24.6378 15.569 24.718 15.372 24.689C15.3215 24.6822 15.2692 24.6685 15.2204 24.6839C15.1628 24.7026 15.128 24.7555 15.0948 24.8049C14.8333 25.2089 14.5073 25.606 14.0471 25.7696C13.8065 25.8549 13.5188 25.8634 13.3149 25.7117C13.1562 25.5924 13.0778 25.3981 13.0167 25.2106C12.8407 24.6634 12.7552 24.089 12.7639 23.5163C12.7639 23.4771 12.7657 23.4362 12.7692 23.397C12.7831 23.8964 12.8633 24.3941 13.0167 24.8697Z"/>
<path fill="#010101" d="M12.8704 22.9004C13.0622 22.7317 13.3515 22.6754 13.6462 22.747C13.9495 22.822 14.2215 23.001 14.4481 23.1663L14.5022 23.2055C14.7445 23.3862 14.952 23.5788 15.135 23.7953C15.1455 23.7834 15.1577 23.7697 15.1681 23.7595C15.2797 23.6538 15.4331 23.6061 15.5621 23.6368C15.6563 23.6538 15.7435 23.6947 15.8149 23.7561C15.8655 23.6709 15.916 23.5856 15.9684 23.5021C16.0485 23.3726 16.1322 23.2464 16.2211 23.1203C16.3937 22.8715 16.5559 22.6516 16.779 22.4845C17.0336 22.2936 17.316 22.2237 17.5548 22.2953C17.8163 22.372 17.9558 22.6021 18.0395 22.7675C18.0517 22.7913 18.0639 22.8169 18.0743 22.8408C18.2975 23.33 18.3742 23.9095 18.3097 24.6134C18.294 24.7805 18.2713 24.9595 18.2068 25.1248C18.1633 25.2339 18.104 25.3276 18.0308 25.406C17.8895 25.5543 17.7065 25.6259 17.4799 25.6157C17.4014 25.6123 17.316 25.5986 17.2288 25.5748C16.9603 25.5032 16.6884 25.3702 16.4251 25.181C16.188 25.0106 15.9997 24.847 15.8515 24.6833C15.7557 24.7941 15.6301 24.8487 15.4889 24.835C15.3983 24.8265 15.3163 24.7958 15.2466 24.743C15.1228 25.0396 14.9398 25.3123 14.7114 25.5339C14.5911 25.6515 14.4603 25.7537 14.3209 25.839C14.1727 25.9293 13.9652 26.0214 13.7368 26.0214C13.6601 26.0214 13.5817 26.0111 13.5015 25.9873C13.2714 25.9174 13.0988 25.7367 12.9767 25.4367C12.8251 25.0685 12.7204 24.6714 12.6647 24.2606C12.6333 24.0373 12.6193 23.814 12.6211 23.5942C12.6211 23.3896 12.649 23.0947 12.8704 22.9004ZM17.7274 25.3123C17.8913 25.2271 17.9907 25.043 18.036 24.7498C18.1127 24.2333 18.0953 23.739 17.9819 23.3214C17.9715 23.2856 17.961 23.2498 17.9506 23.2141C17.9035 23.0658 17.8425 22.8953 17.7466 22.7572C17.7082 22.701 17.6664 22.6533 17.6228 22.6158C17.5478 22.5527 17.4607 22.5271 17.3718 22.5271C17.2393 22.5271 17.1015 22.5834 16.9917 22.6584C16.772 22.8067 16.6134 23.0317 16.4722 23.2311C16.3972 23.3368 16.324 23.4442 16.2543 23.5532C16.1898 23.6521 16.1253 23.7544 16.0607 23.8601C16.1113 23.8345 16.1636 23.8174 16.2194 23.8072C16.2752 23.797 16.3275 23.8311 16.3414 23.8856C16.3554 23.9402 16.3257 23.993 16.2734 24.0101C16.1741 24.0424 16.0904 24.0953 16.0241 24.1686C16.1514 24.16 16.2717 24.2078 16.3467 24.3032L16.3606 24.3271C16.3798 24.3714 16.3658 24.4242 16.3275 24.4549C16.2926 24.4839 16.2438 24.4873 16.2054 24.4686L16.188 24.4566C16.1287 24.4123 16.0642 24.3936 15.9997 24.4021C15.9962 24.4174 15.991 24.4345 15.9858 24.4498C16.0468 24.5027 16.1043 24.5589 16.1636 24.6134C16.2525 24.697 16.3449 24.7856 16.4408 24.8623C16.643 25.0259 16.8365 25.1452 17.0318 25.2305C17.0597 25.2424 17.0893 25.256 17.1207 25.268C17.1992 25.2986 17.2706 25.3225 17.3352 25.3379C17.499 25.3771 17.628 25.3702 17.7309 25.3157L17.7274 25.3123ZM15.067 24.4975C14.9659 24.5095 14.884 24.5555 14.7933 24.6509C14.755 24.6901 14.6905 24.697 14.6434 24.6663C14.5981 24.6356 14.5824 24.5794 14.6068 24.5299C14.673 24.3936 14.8282 24.2998 14.9921 24.2828C14.9206 24.235 14.8421 24.2129 14.755 24.2197C14.6922 24.2248 14.6399 24.1822 14.6329 24.1225C14.626 24.0629 14.6661 24.0101 14.7271 23.9981C14.8282 23.9811 14.9345 23.9964 15.0252 24.039V24.0339C14.9711 23.9743 14.9154 23.9163 14.8578 23.8566C14.6294 23.6265 14.3976 23.4339 14.1709 23.2822C14.0681 23.2141 13.9617 23.1527 13.8589 23.0999C13.5974 22.9669 13.3707 22.9362 13.1842 23.0095C13.0029 23.0794 12.9035 23.2464 12.8878 23.5089C12.8756 23.7101 12.8843 23.9265 12.9122 24.1515C12.9488 24.4396 13.0168 24.743 13.1162 25.0549L13.1406 25.1282C13.2068 25.331 13.2836 25.5611 13.4527 25.6822C13.6933 25.8526 14.0105 25.7162 14.1029 25.6702C14.1605 25.6413 14.2145 25.6089 14.2686 25.5748C14.4359 25.4657 14.5876 25.3225 14.7201 25.1521C14.87 24.9612 14.9903 24.7379 15.0705 24.5044C15.0705 24.5009 15.0688 24.4975 15.067 24.4941V24.4975ZM15.3407 24.4788C15.3826 24.5419 15.4366 24.5759 15.5064 24.5828C15.6511 24.5998 15.7156 24.4396 15.7382 24.3629C15.7347 24.339 15.74 24.3135 15.7539 24.293C15.7574 24.2691 15.7609 24.2436 15.7609 24.2214C15.7609 24.1856 15.7574 24.1498 15.7469 24.1157C15.7138 23.9947 15.6301 23.9044 15.5203 23.8737C15.4401 23.8822 15.3896 23.901 15.3495 23.9385C15.3006 23.9845 15.2745 24.0544 15.2675 24.16V24.1788C15.2623 24.293 15.2902 24.4055 15.3407 24.4822V24.4788Z"/>
</g>
<rect stroke-width="1.38101" stroke="black" rx="16.1457" height="32.2914" width="32.2914" y="0.690504" x="0.690504"/>
<path fill="#151515" d="M55.0713 13.3027C54.9274 12.8366 54.7289 12.4193 54.4757 12.051C54.2282 11.6769 53.929 11.3576 53.5779 11.0928C53.2326 10.8281 52.8355 10.6296 52.3867 10.4972C51.9378 10.3591 51.4486 10.29 50.9192 10.29C49.9696 10.29 49.1236 10.5288 48.3813 11.0065C47.6389 11.4842 47.0548 12.1863 46.6289 13.1128C46.2088 14.0336 45.9987 15.1558 45.9987 16.4794C45.9987 17.8145 46.2088 18.9454 46.6289 19.8719C47.049 20.7985 47.6331 21.5034 48.3813 21.9868C49.1294 22.4645 49.9984 22.7033 50.9882 22.7033C51.886 22.7033 52.6629 22.5307 53.3189 22.1854C53.9808 21.8401 54.4901 21.3509 54.8469 20.7179C55.2037 20.0791 55.3821 19.331 55.3821 18.4735L56.1072 18.5857H51.3076V16.0823H58.4811V18.2059C58.4811 19.7194 58.1588 21.0286 57.5143 22.1336C56.8697 23.2385 55.9835 24.0902 54.8555 24.6888C53.7275 25.2815 52.4327 25.5779 50.971 25.5779C49.3423 25.5779 47.9122 25.2125 46.6807 24.4816C45.4549 23.745 44.4967 22.7004 43.8061 21.348C43.1213 19.9899 42.7789 18.3785 42.7789 16.5139C42.7789 15.0867 42.9803 13.812 43.3831 12.6898C43.7917 11.5676 44.3615 10.6152 45.0923 9.83251C45.8232 9.04409 46.6807 8.44558 47.6648 8.03698C48.6489 7.62263 49.7193 7.41545 50.876 7.41545C51.8543 7.41545 52.7665 7.55932 53.6124 7.84707C54.4584 8.12906 55.2094 8.5319 55.8655 9.0556C56.5273 9.57929 57.0711 10.2008 57.497 10.9202C57.9229 11.6395 58.202 12.4337 58.3343 13.3027H55.0713ZM65.5219 25.5952C64.227 25.5952 63.1048 25.3103 62.1553 24.7406C61.2057 24.1708 60.4691 23.3738 59.9454 22.3494C59.4274 21.325 59.1685 20.128 59.1685 18.7583C59.1685 17.3887 59.4274 16.1888 59.9454 15.1587C60.4691 14.1285 61.2057 13.3286 62.1553 12.7589C63.1048 12.1891 64.227 11.9043 65.5219 11.9043C66.8167 11.9043 67.9389 12.1891 68.8885 12.7589C69.838 13.3286 70.5718 14.1285 71.0897 15.1587C71.6134 16.1888 71.8753 17.3887 71.8753 18.7583C71.8753 20.128 71.6134 21.325 71.0897 22.3494C70.5718 23.3738 69.838 24.1708 68.8885 24.7406C67.9389 25.3103 66.8167 25.5952 65.5219 25.5952ZM65.5391 23.0918C66.2412 23.0918 66.8282 22.899 67.3001 22.5134C67.772 22.1221 68.1231 21.5984 68.3533 20.9423C68.5892 20.2863 68.7072 19.5554 68.7072 18.7497C68.7072 17.9383 68.5892 17.2045 68.3533 16.5485C68.1231 15.8867 67.772 15.3601 67.3001 14.9687C66.8282 14.5774 66.2412 14.3817 65.5391 14.3817C64.8198 14.3817 64.2213 14.5774 63.7436 14.9687C63.2717 15.3601 62.9178 15.8867 62.6818 16.5485C62.4516 17.2045 62.3365 17.9383 62.3365 18.7497C62.3365 19.5554 62.4516 20.2863 62.6818 20.9423C62.9178 21.5984 63.2717 22.1221 63.7436 22.5134C64.2213 22.899 64.8198 23.0918 65.5391 23.0918ZM72.826 30.3084V12.0769H75.8991V14.2695H76.0803C76.2415 13.9473 76.4688 13.6048 76.7623 13.2423C77.0558 12.874 77.4529 12.5603 77.9536 12.3014C78.4542 12.0366 79.093 11.9043 79.8699 11.9043C80.8943 11.9043 81.818 12.1661 82.6409 12.6898C83.4696 13.2077 84.1257 13.976 84.6091 14.9946C85.0983 16.0075 85.3428 17.2506 85.3428 18.7238C85.3428 20.1798 85.104 21.4171 84.6264 22.4357C84.1487 23.4543 83.4984 24.2312 82.6755 24.7664C81.8525 25.3017 80.9202 25.5693 79.8786 25.5693C79.1189 25.5693 78.4888 25.4426 77.9881 25.1894C77.4874 24.9362 77.0846 24.6312 76.7796 24.2744C76.4803 23.9118 76.2472 23.5694 76.0803 23.2472H75.9509V30.3084H72.826ZM75.8904 18.7065C75.8904 19.564 76.0113 20.315 76.253 20.9596C76.5005 21.6041 76.8544 22.1077 77.3148 22.4702C77.7809 22.827 78.3449 23.0055 79.0067 23.0055C79.6973 23.0055 80.2757 22.8213 80.7418 22.453C81.208 22.0789 81.559 21.5696 81.795 20.9251C82.0367 20.2748 82.1575 19.5353 82.1575 18.7065C82.1575 17.8836 82.0395 17.1527 81.8036 16.5139C81.5676 15.8751 81.2166 15.3745 80.7504 15.0119C80.2843 14.6493 79.7031 14.4681 79.0067 14.4681C78.3391 14.4681 77.7723 14.6436 77.3061 14.9946C76.84 15.3457 76.4861 15.8377 76.2444 16.4708C76.0084 17.1038 75.8904 17.8491 75.8904 18.7065ZM89.4422 17.5671V25.3362H86.3173V7.65716H89.3731V14.33H89.5285C89.8393 13.5818 90.3198 12.9919 90.9701 12.5603C91.6261 12.123 92.4606 11.9043 93.4735 11.9043C94.3943 11.9043 95.1971 12.0971 95.8819 12.4826C96.5667 12.8682 97.0962 13.4322 97.4702 14.1746C97.8501 14.917 98.04 15.8233 98.04 16.8938V25.3362H94.9151V17.3772C94.9151 16.4852 94.6849 15.7917 94.2245 15.2968C93.7698 14.7961 93.1311 14.5458 92.3081 14.5458C91.7556 14.5458 91.2607 14.6666 90.8233 14.9083C90.3917 15.1443 90.0522 15.4867 89.8047 15.9356C89.563 16.3844 89.4422 16.9283 89.4422 17.5671ZM105.394 25.5952C104.064 25.5952 102.916 25.3189 101.949 24.7664C100.988 24.2082 100.249 23.4198 99.7309 22.4012C99.2129 21.3768 98.954 20.1712 98.954 18.7842C98.954 17.4203 99.2129 16.2233 99.7309 15.1932C100.255 14.1573 100.985 13.3516 101.923 12.7761C102.862 12.1949 103.964 11.9043 105.23 11.9043C106.047 11.9043 106.818 12.0366 107.543 12.3014C108.274 12.5603 108.919 12.9632 109.477 13.5099C110.041 14.0566 110.484 14.7529 110.806 15.5989C111.128 16.4391 111.29 17.4405 111.29 18.603V19.5611H100.421V17.4549H108.294C108.288 16.8563 108.159 16.324 107.906 15.8579C107.652 15.386 107.299 15.0148 106.844 14.7443C106.395 14.4738 105.871 14.3386 105.273 14.3386C104.634 14.3386 104.073 14.494 103.59 14.8047C103.106 15.1097 102.729 15.5126 102.459 16.0133C102.194 16.5082 102.059 17.052 102.053 17.6448V19.4835C102.053 20.2546 102.194 20.9164 102.476 21.4689C102.758 22.0156 103.152 22.4357 103.659 22.7292C104.165 23.017 104.758 23.1608 105.437 23.1608C105.891 23.1608 106.303 23.0975 106.671 22.9709C107.04 22.8386 107.359 22.6458 107.629 22.3926C107.9 22.1393 108.104 21.8257 108.242 21.4516L111.16 21.7797C110.976 22.5508 110.625 23.2241 110.107 23.7996C109.595 24.3694 108.939 24.8125 108.139 25.129C107.339 25.4398 106.424 25.5952 105.394 25.5952ZM112.232 25.3362V12.0769H115.262V14.2868H115.4C115.641 13.5214 116.056 12.9315 116.643 12.5172C117.235 12.0971 117.912 11.887 118.671 11.887C118.844 11.887 119.037 11.8956 119.25 11.9129C119.468 11.9244 119.65 11.9446 119.794 11.9733V14.8479C119.661 14.8019 119.451 14.7616 119.163 14.727C118.881 14.6868 118.608 14.6666 118.343 14.6666C117.774 14.6666 117.261 14.7903 116.807 15.0378C116.358 15.2795 116.004 15.6162 115.745 16.0478C115.486 16.4794 115.357 16.9772 115.357 17.5412V25.3362H112.232ZM135.439 13.6221H132.21C132.118 13.0927 131.948 12.6236 131.701 12.215C131.453 11.8007 131.145 11.4496 130.777 11.1619C130.409 10.8741 129.989 10.6583 129.517 10.5145C129.051 10.3648 128.547 10.29 128.006 10.29C127.045 10.29 126.193 10.5317 125.451 11.0151C124.709 11.4928 124.127 12.1949 123.707 13.1214C123.287 14.0422 123.077 15.1673 123.077 16.4967C123.077 17.8491 123.287 18.9885 123.707 19.9151C124.133 20.8359 124.714 21.5322 125.451 22.0041C126.193 22.4702 127.042 22.7033 127.998 22.7033C128.527 22.7033 129.022 22.6343 129.482 22.4961C129.948 22.3523 130.366 22.1422 130.734 21.866C131.108 21.5897 131.422 21.2502 131.675 20.8474C131.934 20.4445 132.112 19.9841 132.21 19.4662L135.439 19.4835C135.318 20.3237 135.056 21.1121 134.653 21.8487C134.256 22.5853 133.735 23.2356 133.091 23.7996C132.446 24.3579 131.692 24.7952 130.829 25.1117C129.966 25.4225 129.008 25.5779 127.954 25.5779C126.401 25.5779 125.014 25.2182 123.794 24.4988C122.574 23.7795 121.612 22.7407 120.91 21.3826C120.208 20.0244 119.857 18.3958 119.857 16.4967C119.857 14.5918 120.211 12.9632 120.919 11.6108C121.627 10.2526 122.591 9.21385 123.811 8.49449C125.031 7.77513 126.412 7.41545 127.954 7.41545C128.938 7.41545 129.853 7.55357 130.699 7.8298C131.545 8.10604 132.299 8.51176 132.961 9.04696C133.623 9.57641 134.167 10.2267 134.593 10.9979C135.024 11.7633 135.306 12.638 135.439 13.6221ZM142.315 25.5952C141.021 25.5952 139.898 25.3103 138.949 24.7406C137.999 24.1708 137.263 23.3738 136.739 22.3494C136.221 21.325 135.962 20.128 135.962 18.7583C135.962 17.3887 136.221 16.1888 136.739 15.1587C137.263 14.1285 137.999 13.3286 138.949 12.7589C139.898 12.1891 141.021 11.9043 142.315 11.9043C143.61 11.9043 144.732 12.1891 145.682 12.7589C146.632 13.3286 147.365 14.1285 147.883 15.1587C148.407 16.1888 148.669 17.3887 148.669 18.7583C148.669 20.128 148.407 21.325 147.883 22.3494C147.365 23.3738 146.632 24.1708 145.682 24.7406C144.732 25.3103 143.61 25.5952 142.315 25.5952ZM142.333 23.0918C143.035 23.0918 143.622 22.899 144.094 22.5134C144.566 22.1221 144.917 21.5984 145.147 20.9423C145.383 20.2863 145.501 19.5554 145.501 18.7497C145.501 17.9383 145.383 17.2045 145.147 16.5485C144.917 15.8867 144.566 15.3601 144.094 14.9687C143.622 14.5774 143.035 14.3817 142.333 14.3817C141.613 14.3817 141.015 14.5774 140.537 14.9687C140.065 15.3601 139.711 15.8867 139.475 16.5485C139.245 17.2045 139.13 17.9383 139.13 18.7497C139.13 19.5554 139.245 20.2863 139.475 20.9423C139.711 21.5984 140.065 22.1221 140.537 22.5134C141.015 22.899 141.613 23.0918 142.333 23.0918ZM152.744 17.5671V25.3362H149.619V12.0769H152.606V14.33H152.762C153.067 13.5876 153.553 12.9977 154.221 12.5603C154.894 12.123 155.725 11.9043 156.715 11.9043C157.63 11.9043 158.427 12.0999 159.106 12.4913C159.791 12.8826 160.321 13.4495 160.695 14.1918C161.075 14.9342 161.262 15.8349 161.256 16.8938V25.3362H158.131V17.3772C158.131 16.4909 157.901 15.7974 157.44 15.2968C156.986 14.7961 156.356 14.5458 155.55 14.5458C155.003 14.5458 154.517 14.6666 154.091 14.9083C153.671 15.1443 153.34 15.4867 153.098 15.9356C152.862 16.3844 152.744 16.9283 152.744 17.5671Z"/>
<path fill="#29438D" d="M174.013 7.65716H177.216V19.2072C177.216 20.4733 176.917 21.5869 176.318 22.5479C175.726 23.509 174.891 24.26 173.815 24.801C172.739 25.3362 171.481 25.6038 170.043 25.6038C168.598 25.6038 167.338 25.3362 166.262 24.801C165.185 24.26 164.351 23.509 163.758 22.5479C163.165 21.5869 162.869 20.4733 162.869 19.2072V7.65716H166.072V18.9396C166.072 19.6762 166.233 20.3323 166.555 20.9078C166.883 21.4833 167.344 21.935 167.936 22.2631C168.529 22.5853 169.231 22.7465 170.043 22.7465C170.854 22.7465 171.556 22.5853 172.149 22.2631C172.747 21.935 173.208 21.4833 173.53 20.9078C173.852 20.3323 174.013 19.6762 174.013 18.9396V7.65716ZM178.995 25.3362V7.65716H182.198V15.7802H182.414L189.311 7.65716H193.221L186.385 15.5903L193.282 25.3362H189.432L184.158 17.757L182.198 20.0705V25.3362H178.995Z"/>
<defs>
<clipPath id="clip0_2622_1824">
<rect fill="white" rx="16.8362" height="33.6724" width="33.6724"/>
</clipPath>
</defs>
</svg>